<?xml version="1.0" encoding="utf-8"?>
<!-- Generator: Adobe Illustrator 21.1.0, SVG Export Plug-In . SVG Version: 6.00 Build 0)  -->
<svg version="1.1" id="Layer_1" xmlns="http://www.w3.org/2000/svg" xmlns:xlink="http://www.w3.org/1999/xlink" x="0px" y="0px"
	 viewBox="0 0 300 300" style="enable-background:new 0 0 300 300;" xml:space="preserve">
<style type="text/css">
	.st0{fill:#E76F00;}
	.st1{fill:#5382A1;}
</style>
<g>
	<path class="st0" d="M203.5,212.8h-0.8v-0.5h2.2v0.5h-0.8v2.3h-0.6V212.8z M207.9,212.9L207.9,212.9l-0.8,2.2h-0.4l-0.8-2.2h0v2.2
		h-0.5v-2.7h0.8l0.7,1.9l0.7-1.9h0.8v2.7h-0.5L207.9,212.9z"/>
	<path class="st1" d="M130.2,156.6c0,0-5.7,3.3,4.1,4.4c11.8,1.3,17.9,1.2,30.9-1.3c0,0,3.4,2.1,8.2,4
		C144.1,176.3,107.3,163,130.2,156.6 M126.6,140.3c0,0-6.4,4.7,3.4,5.7c12.6,1.3,22.6,1.4,39.9-1.9c0,0,2.4,2.4,6.1,3.7
		C140.7,158.2,101.4,148.7,126.6,140.3"/>
	<path class="st0" d="M156.7,112.6c7.2,8.3-1.9,15.7-1.9,15.7s18.3-9.4,9.9-21.2c-7.8-11-13.8-16.5,18.7-35.4
		C183.4,71.7,132.3,84.5,156.7,112.6"/>
	<path class="st1" d="M195.3,168.7c0,0,4.2,3.5-4.6,6.2c-16.9,5.1-70.1,6.6-85,0.2c-5.3-2.3,4.7-5.5,7.8-6.2
		c3.3-0.7,5.1-0.6,5.1-0.6c-5.9-4.2-38.3,8.2-16.4,11.7C161.8,189.7,210.8,175.7,195.3,168.7 M132.9,123.4c0,0-27.1,6.4-9.6,8.8
		c7.4,1,22.1,0.8,35.9-0.4c11.2-0.9,22.5-3,22.5-3s-4,1.7-6.8,3.6c-27.5,7.2-80.7,3.9-65.4-3.5C122.4,122.7,132.9,123.4,132.9,123.4
		 M181.6,150.6c28-14.5,15-28.5,6-26.6c-2.2,0.5-3.2,0.9-3.2,0.9s0.8-1.3,2.4-1.8c17.9-6.3,31.6,18.5-5.8,28.4
		C181,151.3,181.4,150.9,181.6,150.6"/>
	<path class="st0" d="M164.7,41.3c0,0,15.5,15.5-14.7,39.3c-24.2,19.1-5.5,30,0,42.5c-14.1-12.8-24.5-24-17.5-34.4
		C142.7,73.3,170.9,65.9,164.7,41.3"/>
	<path class="st1" d="M135.7,190c26.9,1.7,68.1-1,69.1-13.7c0,0-1.9,4.8-22.2,8.6c-22.9,4.3-51.2,3.8-68,1
		C114.6,186,118,188.8,135.7,190"/>
	<path class="st0" d="M131.3,238.5c-2.5,2.2-5.2,3.4-7.6,3.4c-3.4,0-5.3-2.1-5.3-5.4c0-3.6,2-6.2,9.9-6.2h2.9L131.3,238.5
		 M138.3,246.4V222c0-6.2-3.6-10.4-12.1-10.4c-5,0-9.4,1.2-13,2.8l1,4.3c2.8-1,6.4-2,10-2c4.9,0,7.1,2,7.1,6.1v3.1h-2.5
		c-12,0-17.4,4.7-17.4,11.7c0,6,3.6,9.5,10.3,9.5c4.3,0,7.5-1.8,10.6-4.4l0.5,3.7L138.3,246.4L138.3,246.4z M161.6,246.4h-8.7
		l-10.5-34.2h7.6l6.5,21l1.4,6.3c3.3-9.1,5.6-18.4,6.8-27.3h7.4C170.2,223.5,166.6,235.8,161.6,246.4 M195.1,238.5
		c-2.5,2.2-5.2,3.4-7.6,3.4c-3.4,0-5.3-2.1-5.3-5.4c0-3.6,2-6.2,9.9-6.2h3V238.5 M202.1,246.4V222c0-6.2-3.6-10.4-12.1-10.4
		c-5,0-9.4,1.2-13,2.8l1,4.3c2.8-1,6.4-2,10-2c4.9,0,7.1,2,7.1,6.1v3.1h-2.5c-12,0-17.4,4.7-17.4,11.7c0,6,3.6,9.5,10.3,9.5
		c4.3,0,7.5-1.8,10.6-4.4l0.5,3.7L202.1,246.4L202.1,246.4z M103.7,252.2c-2,2.9-5.2,5.2-8.7,6.5l-3.5-4.1c2.7-1.4,5-3.6,6.1-5.7
		c0.9-1.8,1.3-4.2,1.3-9.9v-39h7.4v38.5C106.3,246.2,105.7,249.2,103.7,252.2"/>
</g>
</svg>
