<?xml version="1.0" encoding="utf-8"?>
<!-- Generator: Adobe Illustrator 22.0.1, SVG Export Plug-In . SVG Version: 6.00 Build 0)  -->
<svg version="1.1" id="Layer_1" xmlns="http://www.w3.org/2000/svg" xmlns:xlink="http://www.w3.org/1999/xlink" x="0px" y="0px"
	 viewBox="0 0 300 300" style="enable-background:new 0 0 300 300;" xml:space="preserve">
<style type="text/css">
	.st0{fill:#F7DF1E;}
</style>
<g>
	<path class="st0" d="M51.7,51.7h196.7v196.7H51.7V51.7z"/>
	<path d="M103.4,216l15.1-9.1c2.9,5.1,5.5,9.5,11.9,9.5c6.1,0,9.9-2.4,9.9-11.6V142h18.5v63.1c0,19.1-11.2,27.9-27.6,27.9
		C116.3,232.9,107.7,225.3,103.4,216 M168.7,214l15-8.7c4,6.5,9.1,11.2,18.2,11.2c7.7,0,12.5-3.8,12.5-9.1c0-6.3-5-8.6-13.5-12.3
		l-4.6-2c-13.3-5.7-22.2-12.8-22.2-27.9c0-13.9,10.6-24.4,27.1-24.4c11.8,0,20.2,4.1,26.3,14.8l-14.4,9.2c-3.2-5.7-6.6-7.9-11.9-7.9
		c-5.4,0-8.8,3.4-8.8,7.9c0,5.5,3.4,7.8,11.4,11.2l4.6,2c15.7,6.7,24.6,13.6,24.6,29c0,16.6-13.1,25.7-30.6,25.7
		C185.2,232.9,174.1,224.7,168.7,214"/>
</g>
</svg>
