<?xml version="1.0" encoding="utf-8"?>
<!-- Generator: Adobe Illustrator 21.1.0, SVG Export Plug-In . SVG Version: 6.00 Build 0)  -->
<svg version="1.1" id="Layer_1" xmlns="http://www.w3.org/2000/svg" xmlns:xlink="http://www.w3.org/1999/xlink" x="0px" y="0px"
	 viewBox="0 0 300 300" style="enable-background:new 0 0 300 300;" xml:space="preserve">
<style type="text/css">
	.st0{fill:#E46E2E;}
	.st1{fill:#767474;}
	.st2{fill:#313940;}
</style>
<g id="Page-1">
	<g id="Artboard">
		<g id="Group-Copy-4-_x2B_-Group-_x2B_-Group-Copy">
			<g id="Group-Copy-4" transform="translate(248.000000, 26.000000)">
				<path id="Fill-9" class="st0" d="M-98.4,189.6c-34.1,0-63.8-12.3-79.2-30.4c11.7,32.5,42.7,55.7,79.2,55.7s67.5-23.2,79.2-55.7
					C-34.6,177.4-64.3,189.6-98.4,189.6"/>
				<path id="Fill-10" class="st0" d="M-98.4,71.8c34.1,0,63.8,12.3,79.2,30.4c-11.7-32.5-42.7-55.7-79.2-55.7s-67.5,23.2-79.2,55.7
					C-162.2,84-132.5,71.8-98.4,71.8"/>
				<path id="Fill-11" class="st1" d="M-162.3,233.3c-7.3,0.3-13.5-5.4-13.8-12.7c-0.3-7.3,5.4-13.5,12.7-13.8
					c7.3-0.3,13.5,5.4,13.8,12.7C-149.3,226.8-155,233-162.3,233.3z"/>
				<path id="Fill-12" class="st1" d="M-172.4,60.8c-4.6,0.2-8.4-3.3-8.6-7.9c-0.2-4.6,3.3-8.4,7.9-8.6c4.6-0.2,8.4,3.3,8.6,7.9
					S-167.9,60.6-172.4,60.8z"/>
				<path id="Fill-8" class="st1" d="M-41,51c-7.1,0.3-13.1-5.2-13.4-12.3c-0.3-7.1,5.2-13.1,12.3-13.4C-35,25-29,30.5-28.7,37.6
					C-28.4,44.7-33.9,50.7-41,51z"/>
				<g id="Group-Copy" transform="translate(0.000000, 100.870704)">
					<path id="Fill-1" class="st2" d="M-194.7,41c0,7.6-0.6,10.1-2.2,12c-1.4,1.5-3.7,2.2-6.4,2.4l0.6,4.5c3.1,0,7.4-1.1,9.9-3.6
						c2.8-2.9,3.8-6.9,3.8-13.1V14.4h-5.8V41"/>
					<path id="Fill-2" class="st2" d="M-151.2,37.5c0,3.3,0.1,6.2,0.3,8.7h-5.2l-0.3-5.2h-0.1c-1.5,2.6-4.9,5.9-10.6,5.9
						c-5,0-11.1-2.8-11.1-13.9V14.4h5.8V32c0,6.1,1.9,10.1,7.2,10.1c3.9,0,6.6-2.7,7.7-5.3c0.3-0.9,0.5-1.9,0.5-3V14.4h5.8V37.5"/>
					<path id="Fill-3" class="st2" d="M-140.2,24.8c0-4.1-0.1-7.4-0.3-10.4h5.2l0.3,5.5h0.1c2.4-3.9,6.2-6.2,11.4-6.2
						c7.8,0,13.6,6.5,13.6,16.2c0,11.4-7,17.1-14.6,17.1c-4.2,0-8-1.8-9.9-5h-0.1v17.3h-5.8V24.8L-140.2,24.8z M-134.4,33.3
						c0,0.9,0.1,1.6,0.3,2.4c1.1,4,4.6,6.8,8.7,6.8c6.2,0,9.7-5,9.7-12.3c0-6.4-3.4-11.8-9.5-11.8c-4,0-7.7,2.8-8.8,7.2
						c-0.2,0.7-0.4,1.6-0.4,2.4V33.3L-134.4,33.3z"/>
					<path id="Fill-4" class="st2" d="M-99.5,14.4l7,18.8c0.7,2.1,1.5,4.6,2.1,6.5h0.1c0.6-1.9,1.3-4.3,2.1-6.6l6.4-18.7h6.2
						l-8.7,22.7c-4.2,10.9-7,16.5-11,19.9c-2.8,2.5-5.7,3.5-7.2,3.7l-1.5-4.9c1.5-0.5,3.4-1.4,5.1-2.8c1.6-1.3,3.6-3.5,4.9-6.4
						c0.3-0.6,0.5-1.1,0.5-1.4c0-0.3-0.1-0.8-0.4-1.5l-11.9-29.3H-99.5"/>
					<path id="Fill-5" class="st2" d="M-60.4,5.2v9.1h8.3v4.4h-8.3v17.2c0,3.9,1.1,6.2,4.4,6.2c1.5,0,2.7-0.2,3.4-0.4l0.3,4.3
						c-1.1,0.5-2.9,0.8-5.2,0.8c-2.7,0-4.9-0.9-6.3-2.4c-1.7-1.7-2.3-4.5-2.3-8.3V18.8h-5v-4.4h5V6.7L-60.4,5.2"/>
					<path id="Fill-6" class="st2" d="M-41.3,31.3c0.1,7.8,5.2,11,11,11c4.2,0,6.7-0.7,8.9-1.6l1,4.1c-2.1,0.9-5.6,2-10.7,2
						c-9.9,0-15.8-6.4-15.8-16c0-9.6,5.7-17.2,15-17.2c10.5,0,13.3,9.1,13.3,15c0,1.2-0.1,2.1-0.2,2.7H-41.3L-41.3,31.3z
						 M-24.2,27.2c0.1-3.7-1.5-9.4-8.1-9.4c-5.9,0-8.5,5.4-8.9,9.4H-24.2L-24.2,27.2z"/>
					<path id="Fill-7" class="st2" d="M-10,24.3c0-3.7-0.1-7-0.3-9.9h5.1l0.2,6.2h0.3c1.5-4.3,5-7,8.9-7c0.7,0,1.1,0.1,1.7,0.2v5.5
						c-0.6-0.1-1.2-0.2-2-0.2c-4.1,0-7,3.1-7.8,7.4c-0.1,0.8-0.3,1.7-0.3,2.7v17H-10V24.3"/>
				</g>
			</g>
		</g>
	</g>
</g>
</svg>
