<?xml version="1.0" encoding="utf-8"?>
<!-- Generator: Adobe Illustrator 21.1.0, SVG Export Plug-In . SVG Version: 6.00 Build 0)  -->
<svg version="1.1" id="Layer_1" xmlns="http://www.w3.org/2000/svg" xmlns:xlink="http://www.w3.org/1999/xlink" x="0px" y="0px"
	 viewBox="0 0 300 300" style="enable-background:new 0 0 300 300;" xml:space="preserve">
<style type="text/css">
	.st0{fill:#8993BE;}
	.st1{fill:#232531;}
	.st2{fill:none;}
</style>
<g>
	<ellipse class="st0" cx="150" cy="150" rx="109" ry="56.7"/>
	<g>
		<path class="st1" d="M111.2,123.1H83.6l-11.9,60.5h14.2l3-15.7h13.4c12.7,0.7,26.9-9.7,26.9-27.6
			C129.1,129.8,123.1,123.9,111.2,123.1z M100.7,156.7h-9h0l3.7-22.4h9.7c5.2,0,9,2.2,9,6.7C113.4,153.7,107.4,156,100.7,156.7z"/>
		<path class="st2" d="M205.2,134.3h-9.7l-3.7,22.4h0h9c6.7-0.7,12.7-3,13.4-15.7C214.2,136.6,210.5,134.3,205.2,134.3z"/>
		<path class="st1" d="M211.2,123.1h-27.6l-11.9,60.5h14.2l3-15.7h13.4c12.7,0.7,26.9-9.7,26.9-27.6
			C229.1,129.8,223.2,123.9,211.2,123.1z M200.8,156.7h-9h0l3.7-22.4h9.7c5.2,0,9,2.2,9,6.7C213.5,153.7,207.5,156,200.8,156.7z"/>
		<path class="st1" d="M157.7,167.9h14.9l5.2-30.6c1.5-7.5-3-13.4-14.9-14.2h-13.4l3-15.7h-14.2l-11.9,60.5h14.2l6.7-33.6h11.2
			c5.2,0,5.2,2.2,4.5,6L157.7,167.9z"/>
	</g>
</g>
</svg>
