<?xml version="1.0" encoding="utf-8"?>
<!-- Generator: Adobe Illustrator 21.1.0, SVG Export Plug-In . SVG Version: 6.00 Build 0)  -->
<svg version="1.1" id="Layer_1" xmlns="http://www.w3.org/2000/svg" xmlns:xlink="http://www.w3.org/1999/xlink" x="0px" y="0px"
	 viewBox="0 0 300 300" style="enable-background:new 0 0 300 300;" xml:space="preserve">
<style type="text/css">
	.st0{fill:#007ACC;}
	.st1{fill:#FFFFFF;}
</style>
<g>
	<path class="st0" d="M57.9,150V57.9h184.3v184.3H57.9"/>
	<path class="st1" d="M98.3,150.3v7.5h24V226h17v-68.2h24v-7.4c0-4.1,0-7.5-0.2-7.6c0-0.1-14.6-0.2-32.3-0.2l-32.2,0.1v7.6
		L98.3,150.3L98.3,150.3z M205.9,142.6c4.7,1.1,8.3,3.2,11.5,6.6c1.7,1.8,4.2,5.1,4.4,5.9c0,0.3-8,5.7-12.8,8.7
		c-0.2,0.1-0.9-0.6-1.7-1.8c-2.4-3.4-4.8-4.9-8.7-5.2c-5.5-0.4-9.2,2.5-9.2,7.4c0,1.5,0.3,2.3,0.8,3.5c1.2,2.5,3.5,4.1,10.7,7.2
		c13.2,5.7,18.9,9.4,22.3,14.7c3.9,6,4.8,15.4,2.2,22.4c-2.9,7.7-10.1,12.9-20.4,14.6c-3.2,0.6-10.6,0.5-14.1-0.1
		c-7.4-1.4-14.4-5.1-18.7-9.8c-1.7-1.8-5-6.8-4.8-7.1l1.8-1.1l6.9-4l5.2-3l1.2,1.6c1.5,2.4,4.9,5.6,6.9,6.7c6,3.1,14,2.7,18-0.9
		c1.7-1.6,2.4-3.2,2.4-5.5c0-2.1-0.3-3.1-1.4-4.7c-1.5-2-4.4-3.7-12.7-7.4c-9.5-4.1-13.6-6.6-17.4-10.6c-2.2-2.4-4.1-6.1-5.1-9.2
		c-0.7-2.7-0.9-9.2-0.3-11.8c2-9.2,8.9-15.7,18.9-17.5C195.2,141.4,202.8,141.7,205.9,142.6L205.9,142.6L205.9,142.6z"/>
</g>
</svg>
