<?xml version="1.0" encoding="utf-8"?>
<!-- Generator: Adobe Illustrator 21.1.0, SVG Export Plug-In . SVG Version: 6.00 Build 0)  -->
<svg version="1.1" id="Layer_1" xmlns="http://www.w3.org/2000/svg" xmlns:xlink="http://www.w3.org/1999/xlink" x="0px" y="0px"
	 viewBox="0 0 300 300" style="enable-background:new 0 0 300 300;" xml:space="preserve">
<style type="text/css">
	.st0{fill:#FFFFFF;}
	.st1{fill:#2F3A3E;}
	.st2{fill:#3AB14A;}
</style>
<g>
	<path class="st0" d="M220.6,94.6l-59.2-35.1c-7-4.2-15.8-4.2-22.8,0L79.4,94.6c-7.1,4.3-11.5,12-11.4,20.3v70.2
		c0,8.3,4.3,16,11.4,20.3l59.2,35.1c7,4.2,15.8,4.2,22.8,0l59.2-35.1c7.1-4.3,11.5-12,11.4-20.3v-70.2
		C232,106.6,227.7,98.9,220.6,94.6z"/>
	<path class="st1" d="M220.6,94.6l-59.2-35.1c-7-4.2-15.8-4.2-22.8,0L79.4,94.6c-7.1,4.3-11.5,12-11.4,20.3v70.2
		c0,8.3,4.3,16,11.4,20.3l59.2,35.1c7,4.2,15.8,4.2,22.8,0l59.2-35.1c7.1-4.3,11.5-12,11.4-20.3v-70.2
		C232,106.6,227.7,98.9,220.6,94.6z M140.7,237l-59.2-35.1c-5.8-3.5-9.4-9.9-9.4-16.7v-70.2c0-6.8,3.5-13.2,9.4-16.7L140.7,63
		c5.8-3.4,12.9-3.4,18.7,0l59.1,35.1c4.9,3,8.2,7.9,9.1,13.5c-2-4.2-6.4-5.3-11.5-2.4L160.1,144c-7,4.1-12.1,8.6-12.1,17.1v69
		c0,5,2,8.3,5.2,9.3c-1,0.2-2.1,0.3-3.1,0.3C146.7,239.6,143.5,238.7,140.7,237z"/>
	<path class="st2" d="M205.1,191.9l-14.7,8.8c-0.4,0.2-0.7,0.5-0.7,1v3.9c0,0.5,0.3,0.7,0.7,0.4l15-9.1c0.4-0.3,0.5-0.7,0.5-1.2
		v-3.4C205.8,191.9,205.4,191.7,205.1,191.9L205.1,191.9z"/>
	<path class="st0" d="M173.7,159.5c0.5-0.2,0.9,0,0.9,0.7l0,5.1c1.8-0.8,3.7-1,5.7-0.7c0.4,0.1,0.5,0.6,0.4,1.2l-1.1,4.5
		c-0.1,0.3-0.3,0.7-0.5,0.9c-0.1,0.1-0.2,0.2-0.3,0.2c-0.1,0.1-0.3,0.1-0.4,0.1c-1.9-0.4-3.8-0.1-5.5,0.9c-2.4,1.1-4,3.4-4,6.1
		c0,2.4,1.2,3,5.3,3.1c5.5,0.1,7.8,2.5,7.9,8c-0.1,5.8-2.8,11.2-7.3,14.8l0.1,5c0,0.6-0.3,1.2-0.9,1.5l-3,1.7
		c-0.5,0.2-0.9,0-0.9-0.7v-5c-2.6,1.1-5.2,1.3-6.8,0.7c-0.3-0.1-0.5-0.6-0.3-1.1l1.1-4.6c0.1-0.4,0.3-0.7,0.5-0.9
		c0.1-0.1,0.2-0.1,0.3-0.2c0.2-0.1,0.3-0.1,0.5,0c2.1,0.6,4.4,0.3,6.3-0.8c2.7-1.3,4.5-4.1,4.6-7.1c0-2.6-1.4-3.6-4.7-3.6
		c-4.3,0-8.3-0.8-8.4-7.1c0.1-5.5,2.6-10.6,6.9-14.1l-0.2-5.2c0-0.6,0.3-1.2,0.9-1.6L173.7,159.5z"/>
</g>
</svg>
