<?xml version="1.0" encoding="utf-8"?>
<!-- Generator: Adobe Illustrator 21.1.0, SVG Export Plug-In . SVG Version: 6.00 Build 0)  -->
<svg version="1.1" id="Layer_1" xmlns="http://www.w3.org/2000/svg" xmlns:xlink="http://www.w3.org/1999/xlink" x="0px" y="0px"
	 viewBox="0 0 300 300" style="enable-background:new 0 0 300 300;" xml:space="preserve">
<style type="text/css">
	.st0{fill:#76B900;}
</style>
<g>
	<path id="Eye_Mark" class="st0" d="M125.7,95.2V85c1-0.1,2-0.1,3-0.2c27.8-0.9,46,23.9,46,23.9S155,136,133.9,136
		c-2.8,0-5.6-0.4-8.2-1.3v-30.8c10.8,1.3,13,6.1,19.5,16.9l14.5-12.2c0,0-10.6-13.8-28.3-13.8C129.5,94.8,127.6,94.9,125.7,95.2
		 M125.7,61.6v15.2c1-0.1,2-0.1,3-0.2c38.6-1.3,63.8,31.7,63.8,31.7s-28.9,35.1-59,35.1c-2.6,0-5.2-0.2-7.8-0.7v9.4
		c2.1,0.3,4.3,0.4,6.5,0.4c28,0,48.3-14.3,67.9-31.2c3.3,2.6,16.6,8.9,19.3,11.7c-18.7,15.6-62.1,28.2-86.8,28.2
		c-2.4,0-4.7-0.1-6.9-0.4V174h106.5V61.6L125.7,61.6z M125.7,134.7v8c-25.9-4.6-33.1-31.6-33.1-31.6s12.4-13.8,33.1-16v8.8h0
		c-10.8-1.3-19.3,8.8-19.3,8.8S111.1,129.8,125.7,134.7 M79.7,110c0,0,15.4-22.7,46-25v-8.2c-34,2.7-63.4,31.5-63.4,31.5
		s16.7,48.2,63.4,52.6v-8.7C91.5,147.8,79.7,110,79.7,110z"/>
	<path d="M110.6,224.3c-1,4.5-3,8-5.9,10.4c-3,2.4-6.6,3.6-10.7,3.6c-3.7-0.1-6.8-1-9.3-2.8c-2.5-1.7-4.4-3.7-5.5-6
		c-0.3-0.7-0.7-1.4-0.9-2.1c-0.3-0.8-0.5-1.7-0.6-2.6c-0.3-2-0.5-5.7-0.5-11.3c0-5.7,0.2-9.5,0.5-11.4c0.2-1.6,0.8-3.2,1.6-4.7
		c1.1-2.3,3-4.3,5.5-6c2.5-1.8,5.6-2.7,9.3-2.7c4.6,0,8.3,1.4,11.2,4.2c2.9,2.8,4.8,6.4,5.4,10.3H103c-0.6-1.9-1.7-3.7-3.2-5
		c-1.7-1.3-3.7-2.1-5.9-2.1c-1.5,0-3,0.4-4.4,1c-1.2,0.6-2.2,1.5-3,2.5c-1,1.2-1.6,2.6-1.9,4.1c-0.3,1.7-0.5,5-0.5,9.8
		s0.2,8.1,0.5,9.8c0.2,1.5,0.9,3,1.9,4.1c0.8,1,1.8,1.9,3,2.5c1.3,0.8,2.8,1.1,4.4,1.1c4,0,7.1-2.2,9-6.7L110.6,224.3z"/>
	<path d="M116,189.1h7.2v31.5c0,3.3,1,5.9,2.8,7.6c1.8,1.8,4.1,2.8,6.9,2.8s5.1-0.9,6.9-2.8c1.8-1.7,2.7-4.3,2.7-7.6v-31.5h7.2v32.3
		c-0.1,5.1-1.7,9.2-4.8,12.2c-3.2,3.1-7.2,4.7-12,4.7c-4.7,0-8.7-1.6-11.9-4.7c-3.2-3-4.9-7.1-4.9-12.2L116,189.1z"/>
	<path d="M160.1,189.1h16.6c6.4,0,11.2,2.8,14.4,8.2c1.1,1.8,1.9,3.7,2.2,5.8c0.2,2,0.4,5.5,0.4,10.4c0,5.3-0.2,8.9-0.6,11
		c-0.2,1-0.4,1.9-0.8,2.8c-0.4,0.9-0.8,1.7-1.3,2.5c-1.4,2.3-3.4,4.3-5.8,5.7c-2.4,1.6-5.4,2.4-9,2.4h-16.1L160.1,189.1z M167.3,231
		h8.6c4,0,7-1.4,8.8-4.3c0.8-1.2,1.4-2.6,1.5-4c0.2-1.6,0.3-4.6,0.3-8.9c0-4.3-0.1-7.3-0.3-9.1c-0.2-1.6-0.8-3.2-1.9-4.5
		c-2-2.8-4.8-4.2-8.5-4.1h-8.6V231z"/>
	<path d="M226.4,227h-18l-3.6,10.9h-7.6l17.2-48.9h6l17.2,48.9h-7.6L226.4,227z M224.4,220.4l-6.9-21.4h-0.1l-6.9,21.4H224.4z"/>
</g>
</svg>
