<?xml version="1.0" encoding="utf-8"?>
<!-- Generator: Adobe Illustrator 21.1.0, SVG Export Plug-In . SVG Version: 6.00 Build 0)  -->
<svg version="1.1" id="Layer_1" xmlns="http://www.w3.org/2000/svg" xmlns:xlink="http://www.w3.org/1999/xlink" x="0px" y="0px"
	 viewBox="0 0 300 300" style="enable-background:new 0 0 300 300;" xml:space="preserve">
<style type="text/css">
	.st0{opacity:0.2745;fill:#2E3436;}
	.st1{fill:#A40000;}
	.st2{fill:url(#rect3408_1_);}
	.st3{fill:#EEEEEC;}
	.st4{fill:none;stroke:url(#rect3372_1_);stroke-width:1.3463;stroke-linecap:round;stroke-linejoin:round;}
	.st5{fill:none;stroke:#323232;stroke-width:1.3558;stroke-linecap:round;stroke-linejoin:round;}
	.st6{fill:url(#rect3477_1_);}
</style>
<g id="layer1" transform="translate(-2.9819053,-15.753182)">
	<g id="g2225" transform="matrix(1.475092,0,0,1.475092,-30.36508,-28.63879)">
		<path id="rect3466" class="st0" d="M76.2,88.2h102.5c6.7,0,12.1,6,12.1,13.4v67.7c0,7.4-5.4,13.4-12.1,13.4H76.2
			c-6.7,0-12.1-6-12.1-13.4v-67.7C64.1,94.2,69.5,88.2,76.2,88.2z"/>
		<path id="rect3297" class="st1" d="M71.9,84h102.5c6.7,0,12.1,6,12.1,13.4v67.7c0,7.4-5.4,13.4-12.1,13.4H71.9
			c-6.7,0-12.1-6-12.1-13.4V97.4C59.8,90,65.2,84,71.9,84z"/>
		
			<linearGradient id="rect3408_1_" gradientUnits="userSpaceOnUse" x1="-8.2657" y1="163.5086" x2="18.8469" y2="142.3377" gradientTransform="matrix(1.4751 0 0 -1.4629 78.3797 326.3645)">
			<stop  offset="0" style="stop-color:#F2F2F0;stop-opacity:0.1354"/>
			<stop  offset="1" style="stop-color:#EEEEEC;stop-opacity:0.3958"/>
		</linearGradient>
		<path id="rect3408" class="st2" d="M73.2,88.7h99.9c4.5,0,8.2,4,8.2,8.8V165c0,4.9-3.7,8.8-8.2,8.8H73.2c-4.5,0-8.2-4-8.2-8.8
			V97.5C65,92.7,68.6,88.7,73.2,88.7z"/>
		<path id="path2242" class="st3" d="M74,97.2c-1.3,0.2-2.3,1.2-2.3,2.4l0.1,62.8c0,0.1,0,0.2,0,0.3c0,0.1,0,0.3,0,0.4
			c0,0,0,0,0,0.1c0,0.1,0,0.1,0.1,0.2c0,0,0,0,0,0c0,0.1,0,0.1,0,0.2c0,0,0,0,0,0.1c0,0.1,0.1,0.1,0.1,0.2c0,0,0,0,0,0
			c0,0.1,0.1,0.1,0.2,0.2c0,0,0,0,0,0c0,0.1,0.1,0.1,0.1,0.2c0,0,0,0,0,0.1c0.1,0,0.1,0.1,0.2,0.1c0,0,0,0,0,0.1
			c0,0,0.1,0.1,0.1,0.1c0,0,0,0,0.1,0.1c0,0,0.1,0.1,0.1,0.1c0,0,0,0,0,0c0.1,0.1,0.3,0.2,0.4,0.3c0,0,0,0,0.1,0
			c0.1,0,0.1,0.1,0.2,0.1c0,0,0,0,0,0c0.1,0,0.1,0.1,0.2,0.1c0.1,0,0.2,0,0.3,0c0.2,0,0.3,0.1,0.5,0.1l0.3,0l24.1-0.1
			c6.9,0,11.5-0.1,14.2-0.5c0,0,0,0,0.1,0c2.6-0.4,5.4-1,8.4-2c5.3-1.6,9.9-4.1,13.9-7.3c3.9-3.1,7-6.9,9.1-11
			c2.1-4.2,3.2-8.6,3.2-13.2c0-6.4-1.9-12.4-5.8-17.7c-3.9-5.4-9.2-9.5-15.7-12.2c-6.6-2.8-15.3-4.1-26-4.1l-26,0
			C74.2,97.2,74.1,97.2,74,97.2L74,97.2z M88,110.1l11.2,0c5.2,0,9,0.1,11.1,0.4c2.1,0.3,4.5,0.9,7,1.9c2.5,0.9,4.6,2.1,6.5,3.5
			c0,0,0,0,0,0.1c5.1,3.9,7.5,8.6,7.5,14.7c0,6.3-2.3,11.3-7.2,15.4c-1.5,1.3-3.2,2.3-5.1,3.2c-1.8,0.8-4.1,1.5-7,2.1
			c-2.7,0.5-6.9,0.9-12.3,0.9l-11.5,0L88,110.1L88,110.1z"/>
		<path id="path2211" class="st3" d="M166.8,119.2c0,9.3-8.2,16.8-18.3,16.8c-10.1,0-18.3-7.5-18.3-16.8c0,0,0,0,0,0
			c0-9.3,8.2-16.8,18.3-16.8C158.6,102.4,166.8,109.9,166.8,119.2C166.8,119.2,166.8,119.2,166.8,119.2z"/>
		
			<linearGradient id="rect3372_1_" gradientUnits="userSpaceOnUse" x1="-11.2529" y1="164.9416" x2="113.1253" y2="71.5512" gradientTransform="matrix(1.4709 0 0 -1.4584 77.6733 325.653)">
			<stop  offset="0" style="stop-color:#FFFFFF"/>
			<stop  offset="1" style="stop-color:#FFFFFF;stop-opacity:0.3333"/>
		</linearGradient>
		<path id="rect3372" class="st4" d="M72.2,85.9h102c5.7,0,10.3,5.1,10.3,11.5v67.8c0,6.3-4.6,11.5-10.3,11.5h-102
			c-5.7,0-10.3-5.1-10.3-11.5V97.4C61.8,91,66.4,85.9,72.2,85.9z"/>
		<path id="rect3464" class="st5" d="M71.9,84h102.5c6.7,0,12.1,6,12.1,13.4v67.7c0,7.4-5.4,13.4-12.1,13.4H71.9
			c-6.7,0-12.1-6-12.1-13.4V97.4C59.8,90,65.2,84,71.9,84z"/>
		
			<linearGradient id="rect3477_1_" gradientUnits="userSpaceOnUse" x1="-2.2132" y1="221.0964" x2="24.8993" y2="199.9255" gradientTransform="matrix(1.4751 0 0 1.4629 78.3797 -137.0567)">
			<stop  offset="0" style="stop-color:#F2F2F0;stop-opacity:0.1354"/>
			<stop  offset="1" style="stop-color:#EEEEEC;stop-opacity:0.3958"/>
		</linearGradient>
		<path id="rect3477" class="st6" d="M73.2,173.5h99.9c4.5,0,8.2-3.9,8.2-8.8v-14.1c-35.7-13.7-87.4-21.1-116.3-21.3v35.5
			C65,169.6,68.6,173.5,73.2,173.5z"/>
		<path id="path2222" class="st3" d="M175.2,100.8c0,3-2.6,5.4-5.9,5.4c-3.2,0-5.9-2.4-5.9-5.4c0,0,0,0,0,0c0-3,2.6-5.4,5.9-5.4
			C172.6,95.4,175.2,97.8,175.2,100.8C175.2,100.7,175.2,100.7,175.2,100.8z"/>
	</g>
</g>
</svg>
