<?xml version="1.0" encoding="utf-8"?>
<!-- Generator: Adobe Illustrator 21.1.0, SVG Export Plug-In . SVG Version: 6.00 Build 0)  -->
<svg version="1.1" id="Layer_1" xmlns="http://www.w3.org/2000/svg" xmlns:xlink="http://www.w3.org/1999/xlink" x="0px" y="0px"
	 viewBox="0 0 300 300" style="enable-background:new 0 0 300 300;" xml:space="preserve">
<style type="text/css">
	.st0{fill:#00007D;}
	.st1{fill:#FFFFFF;}
	.st2{fill:#929292;}
</style>
<g>
	<path class="st0" d="M226.2,150c0-42.1-34.1-76.2-76.2-76.2c-42.1,0-76.2,34.1-76.2,76.2c0,42.1,34.1,76.2,76.2,76.2
		C192.1,226.2,226.2,192.1,226.2,150"/>
	<path class="st1" d="M203.9,118.4c0-12.3-10-22.3-22.3-22.3c-12.3,0-22.3,10-22.3,22.3s10,22.3,22.3,22.3S203.9,130.8,203.9,118.4"
		/>
	<path class="st0" d="M248.5,73.8c0-12.3-10-22.3-22.3-22.3s-22.3,10-22.3,22.3c0,12.3,10,22.3,22.3,22.3
		C238.5,96.1,248.5,86.1,248.5,73.8"/>
	<path class="st1" d="M98,138.9h6.7v43.3h24.7v5.9H98V138.9 M141.4,152.2V176c0,1.8,0.3,3.3,0.8,4.5c1,2.1,3,3.2,5.8,3.2
		c4.1,0,6.9-1.9,8.4-5.6c0.8-2,1.2-4.8,1.2-8.3v-17.6h6v35.9H158l0.1-5.3c-0.8,1.4-1.7,2.5-2.9,3.4c-2.3,1.9-5,2.8-8.2,2.8
		c-5,0-8.4-1.7-10.3-5.1c-1-1.8-1.5-4.3-1.5-7.3v-24.4H141.4 M192.7,166.4c1.4-0.2,2.3-0.8,2.8-1.7c0.3-0.5,0.4-1.3,0.4-2.3
		c0-2.1-0.7-3.6-2.2-4.5c-1.5-0.9-3.5-1.4-6.3-1.4c-3.1,0-5.4,0.9-6.7,2.6c-0.7,0.9-1.2,2.3-1.4,4.2h-5.6c0.1-4.4,1.5-7.5,4.3-9.3
		c2.8-1.7,5.9-2.6,9.6-2.6c4.2,0,7.6,0.8,10.3,2.4c2.6,1.6,3.9,4.1,3.9,7.5v20.7c0,0.6,0.1,1.1,0.4,1.5c0.3,0.4,0.8,0.6,1.6,0.6
		c0.3,0,0.6,0,0.9,0c0.3,0,0.7-0.1,1.1-0.2v4.5c-0.9,0.3-1.7,0.4-2.1,0.5c-0.5,0.1-1.2,0.1-2,0.1c-2.1,0-3.6-0.7-4.5-2.2
		c-0.5-0.8-0.8-1.9-1-3.3c-1.2,1.6-3,3-5.3,4.2c-2.3,1.2-4.8,1.8-7.6,1.8c-3.3,0-6-1-8.2-3c-2.1-2-3.2-4.5-3.2-7.6
		c0-3.3,1-5.9,3.1-7.7c2.1-1.8,4.8-3,8.2-3.4L192.7,166.4L192.7,166.4z M180,182.7c1.3,1,2.8,1.5,4.5,1.5c2.1,0,4.2-0.5,6.2-1.5
		c3.3-1.6,5-4.3,5-8v-4.8c-0.7,0.5-1.7,0.9-2.8,1.2c-1.2,0.3-2.3,0.5-3.4,0.7l-3.6,0.5c-2.2,0.3-3.8,0.7-4.9,1.4
		c-1.9,1-2.8,2.7-2.8,5C178.1,180.3,178.8,181.7,180,182.7L180,182.7z"/>
	<path class="st2" d="M153.5,249.6l-0.1-2.3c2.8-0.1,5.7-0.3,8.5-0.7l0.3,2.3C159.3,249.3,156.4,249.5,153.5,249.6L153.5,249.6z
		 M144.8,249.5c-2.9-0.1-5.8-0.4-8.7-0.8l0.3-2.3c2.8,0.4,5.6,0.7,8.5,0.8L144.8,249.5L144.8,249.5z M170.8,247.5l-0.5-2.2
		c2.8-0.6,5.5-1.3,8.2-2.1l0.7,2.2C176.4,246.2,173.6,246.9,170.8,247.5L170.8,247.5z M127.6,247.2c-2.8-0.6-5.6-1.4-8.4-2.3
		l0.7-2.2c2.7,0.9,5.4,1.6,8.2,2.3L127.6,247.2z M187.4,242.4l-0.9-2.1c2.6-1.1,5.2-2.2,7.7-3.5l1,2
		C192.7,240.1,190.1,241.3,187.4,242.4z M111.1,241.8c-2.7-1.1-5.3-2.4-7.8-3.7l1.1-2c2.5,1.3,5.1,2.6,7.7,3.7L111.1,241.8
		L111.1,241.8z M202.8,234.5l-1.2-1.9c2.4-1.5,4.7-3.1,7-4.8l1.4,1.8C207.7,231.3,205.3,233,202.8,234.5L202.8,234.5z M95.8,233.6
		c-2.4-1.6-4.8-3.3-7.1-5.1l1.4-1.8c2.2,1.7,4.5,3.4,6.9,4.9L95.8,233.6z M216.7,224.1l-1.5-1.7c2.1-1.9,4.1-3.9,6.1-6l1.7,1.6
		C220.9,220.1,218.9,222.1,216.7,224.1L216.7,224.1z M82.1,222.9c-2.1-2-4.2-4-6.1-6.2l1.7-1.5c1.9,2.1,3.9,4.1,6,6.1L82.1,222.9
		L82.1,222.9z M228.6,211.3l-1.8-1.4c1.7-2.2,3.4-4.5,4.9-6.9l1.9,1.2C232,206.7,230.3,209.1,228.6,211.3z M70.4,210
		c-1.7-2.3-3.4-4.7-4.9-7.2l1.9-1.2c1.5,2.4,3.1,4.7,4.8,7L70.4,210L70.4,210z M238,196.8l-2-1.1c1.3-2.5,2.6-5.1,3.7-7.7l2.1,0.9
		C240.6,191.6,239.4,194.2,238,196.8z M61.2,195.3c-1.3-2.6-2.5-5.2-3.6-7.9l2.1-0.9c1.1,2.6,2.2,5.2,3.5,7.7
		C63.2,194.3,61.2,195.3,61.2,195.3z M244.8,180.8l-2.2-0.7c0.9-2.7,1.6-5.4,2.3-8.2l2.2,0.5C246.5,175.2,245.7,178,244.8,180.8
		L244.8,180.8z M54.7,179.2c-0.8-2.8-1.6-5.6-2.2-8.4l2.2-0.5c0.6,2.8,1.3,5.5,2.1,8.2C56.9,178.6,54.7,179.2,54.7,179.2z
		 M248.7,163.9l-2.3-0.3c0.4-2.8,0.7-5.6,0.8-8.5l2.3,0.1C249.4,158.1,249.1,161,248.7,163.9z M51.1,162.2c-0.4-2.9-0.6-5.8-0.7-8.7
		l2.3-0.1c0.1,2.8,0.3,5.7,0.7,8.5L51.1,162.2z M247.3,146.6c-0.1-2.8-0.3-5.7-0.7-8.5l2.3-0.3c0.4,2.9,0.6,5.8,0.7,8.7L247.3,146.6
		z M52.7,145l-2.3-0.1c0.1-2.9,0.4-5.8,0.8-8.7l2.3,0.3C53.1,139.3,52.9,142.2,52.7,145z M245.3,129.7c-0.6-2.8-1.3-5.5-2.1-8.2
		l2.2-0.7c0.8,2.8,1.6,5.6,2.2,8.4L245.3,129.7L245.3,129.7z M55.1,128.2l-2.2-0.5c0.6-2.8,1.4-5.6,2.3-8.4l2.2,0.7
		C56.4,122.7,55.7,125.4,55.1,128.2z M240.3,113.5c-1.1-2.6-2.2-5.2-3.5-7.7l2-1c1.3,2.6,2.5,5.2,3.6,7.9L240.3,113.5z M60.3,112
		l-2.1-0.9c1.1-2.7,2.4-5.3,3.7-7.9l2,1.1C62.6,106.9,61.4,109.4,60.3,112L60.3,112z M68.3,97l-1.9-1.2c1.6-2.4,3.3-4.8,5-7.1
		l1.8,1.4C71.4,92.4,69.8,94.7,68.3,97L68.3,97z M78.7,83.7L77,82.1c2-2.1,4-4.2,6.2-6.1l1.5,1.7C82.7,79.6,80.6,81.6,78.7,83.7
		L78.7,83.7z M91.3,72.3l-1.4-1.8c2.3-1.7,4.7-3.4,7.2-4.9l1.2,1.9C95.9,69,93.6,70.6,91.3,72.3L91.3,72.3z M203,68.3l-0.1-0.1
		l1.2-1.9l0.1,0.1L203,68.3L203,68.3z M195.6,63.9c-2.5-1.3-5.1-2.5-7.7-3.6l0.9-2.1c2.7,1.1,5.3,2.4,7.9,3.7L195.6,63.9L195.6,63.9
		z M105.7,63.3l-1-2c2.6-1.3,5.2-2.5,7.9-3.6l0.9,2.1C110.8,60.8,108.2,62,105.7,63.3L105.7,63.3z M180,57.3
		c-2.7-0.9-5.4-1.6-8.2-2.3l0.5-2.2c2.8,0.6,5.6,1.4,8.4,2.3L180,57.3z M121.4,56.9l-0.7-2.2c2.8-0.9,5.6-1.6,8.4-2.2l0.5,2.2
		C126.8,55.3,124.1,56,121.4,56.9z M163.4,53.5c-2.8-0.4-5.6-0.7-8.5-0.8l0.1-2.3c2.9,0.1,5.8,0.4,8.7,0.8L163.4,53.5z M138,53.3
		l-0.3-2.3c2.9-0.4,5.8-0.6,8.7-0.7l0.1,2.3C143.6,52.8,140.8,53,138,53.3z"/>
</g>
</svg>
