<?xml version="1.0" encoding="utf-8"?>
<!-- Generator: Adobe Illustrator 21.1.0, SVG Export Plug-In . SVG Version: 6.00 Build 0)  -->
<svg version="1.1" id="Layer_1" xmlns="http://www.w3.org/2000/svg" xmlns:xlink="http://www.w3.org/1999/xlink" x="0px" y="0px"
	 viewBox="0 0 300 300" style="enable-background:new 0 0 300 300;" xml:space="preserve">
<style type="text/css">
	.st0{fill:#004065;}
</style>
<g>
	<path class="st0" d="M172.5,155.6c1.5,8.7,2.5,17.5,3,26.3c0.1,5.5-1.5,10.9-4.6,15.4c-0.7,2.6-2.9,0-4.5,0c-3.9,0-5.3-4.2-7.4-6.8
		c-2.1-2.6-0.6-4.9,0.8-7c1.5-1.1,2.1-3.5,4.3-3.5c2.2,0,1.9-3,1.6-4.5c1.4-2.2,0.6-5.4,2-7.9c2.5-1.1,1.8-5,2.7-7.2
		c0.7-1.6,0-4.6,2-5.2C172.2,155.2,172.5,155.2,172.5,155.6 M170,65.9c-3.3-0.4-5.8,1.9-8.5,3.1c-2.3,0.8-4.6,1.4-7,1.9
		c-1.7,3.5-5.7,5.6-7.8,8.8c-2.2,6.5-6.2,12.3-11.7,16.5c-7.8,4-11.7,12.7-14.2,21c-0.9,1.9-0.7,4.6-1.7,6.1
		c-3.1,0.9-1.4-3.1-1.8-5.1c-0.5-2.9,2.1-4.7,2.2-7.5c1-2,1.5-4.2,1.3-6.5c-0.3-5,1.2-11.1-2.4-15.2c-2.1-1.2-1.4-3.8-2.2-5.8
		c-2.1-2.8-4.7-5.2-7.8-7c-2.5-0.2-4.8-3.5-7.4-2c-1.6,1.9-4.6,1.9-5.5,4.4c-0.6,3.1-4.1,2.3-6.4,3.1c-2.9,1.2-6.7,0-9.1,2.3
		c-2.4,2.3-6.4,5.8-5.2,9.7c2.8,5.4,9.9,2.7,13.8,6c-1.2,3.6-2.6,7.2-4.2,10.7c-0.6,4.7-0.7,9.5-0.3,14.3c0.7,4.7-0.5,10.9,3.5,14.2
		c2.3,0.8,2.1,3.5,3,5.4c0.9,2,2.5-0.7,3.2,1.2c2,1.1,0.2,3.5,1.3,4.9c1.9,0.4,3.6,1.3,4.9,2.6c2.1,1.5,4.1,3.2,6,5.1
		c1.4,2.9,3.2-2.8,4.7-0.7c0.7,1.8,2.8,2.6,4.5,1.9c0.1-0.1,0.3-0.1,0.4-0.2c2.8-0.5,5.5-1.6,7.8-3.4c1.5,5.3,0.3,11.1,1,16.7
		c0.9,4,1.5,8.1,1.7,12.3c1,4.1,1.7,8.2,1.8,12.4c1.1,8.7-0.3,17.6-4.3,25.5c-0.5,2.5-2.4,4.4-4.9,4.9c-1.7,0.8-5.4,2.2-4.2,4.7
		c4.1,3.5,10.5,3.1,15.1,1.3c3.1-1.5,0.4-5.2,2-7.5c2.1-8,1-16.5,3.5-24.4c1.9-4,2.6-8.5,2.1-12.9c0.5-2.7-0.6-5.9,1.1-8.1
		c0-2.7,1-5.3,2.8-7.3c0.6-4.1,0.9-8.2,0.9-12.4c2.5-0.8,5-1,7.6-0.8c0,2.3-1.6,5-1.2,7.5c0.5,2.9,0,5.9-1.6,8.4
		c-1.1,4.5-1.8,10.1,1,14c4.7,5.1,10.8,8.8,15.2,14.2c1.4,1.1,1.6,3.1,0.5,4.5c-0.1,0.1-0.2,0.2-0.3,0.3c-0.8,3-3,5.3-5.9,6.3
		c-1.9,0.7-4.8,3.5-2.7,5.4c4.4,1,8.9,0.7,13.1-0.9c2.9-1,1.8-4.5,2.9-6.7c1.5,2.1,3,4.3,4.3,6.5c1.8,2.7,4.9,0.5,7-0.4
		c0.3-3.9-0.5-7.8-2.3-11.2c-1-2.3-4.8-2.4-4.6-5.2c1.9-7,6.6-12.4,10.3-18.3c3.1-2.9,0.8-7.3,0.9-11c-1-9.5,1.3-19.1,6.5-27.1
		c1.1,4.5,2.5,8.8,4.2,13.1c1.2,5,3.4,9.7,6.5,13.8c1.4,5,1,10.5,2,15.6c1.3,8.9,0.9,17.9-1.5,26.6c0.2,3.2-2.8,5.5-2.5,8.6
		c0.8,2.9,4.2,0.6,5.9,1.8c3.2,1,6.5-0.5,8-3.5c-0.7-2.4-1.2-4.9-1.5-7.4c-2.4-7.3-2.9-15.2-1.5-22.8c0.3-4.1,2.8-9.1-0.5-12.7
		c-0.9-3.8,0.6-7.9-0.3-11.7c-2.2-9.9-2.4-20.2-0.7-30.2c0.6-1.4,0-4,1.5-4.7c1.5,2.2,2.2,4.9,1.9,7.5c1.4,4.1,1.5,8.5,0.5,12.7
		c-2.5,3.2-1,7.6-0.7,11.3c0.4,2.6,3.1,0.7,3.5-0.9c2.3-4.4,4.2-9,5.7-13.7c1.6-2.2,0-4.7,0-7c2.5-0.3,1.5-3.1,0.2-4.3
		c-1.3-4.5-1-9.6-4-13.4c-4.7-4.9-8.7-10.5-11.7-16.7c-3.2-10-12.3-16.7-15.3-26.8c-1.2-5.9-4.7-11-9.7-14.2c-2.3-1-4.6-1.9-7-2.5
		C174.2,65.5,172.1,65.7,170,65.9"/>
</g>
</svg>
