<?xml version="1.0" encoding="utf-8"?>
<!-- Generator: Adobe Illustrator 21.1.0, SVG Export Plug-In . SVG Version: 6.00 Build 0)  -->
<svg version="1.1" id="Layer_1" xmlns="http://www.w3.org/2000/svg" xmlns:xlink="http://www.w3.org/1999/xlink" x="0px" y="0px"
	 viewBox="0 0 300 300" style="enable-background:new 0 0 300 300;" xml:space="preserve">
<style type="text/css">
	.st0{opacity:0.5;clip-path:url(#SVGID_2_);enable-background:new    ;}
	.st1{fill:#013157;}
	.st2{opacity:0.5;clip-path:url(#SVGID_4_);enable-background:new    ;}
	.st3{opacity:0.5;clip-path:url(#SVGID_6_);enable-background:new    ;}
	.st4{opacity:0.5;clip-path:url(#SVGID_8_);enable-background:new    ;}
	.st5{opacity:0.5;clip-path:url(#SVGID_10_);enable-background:new    ;}
	.st6{opacity:0.5;clip-path:url(#SVGID_12_);enable-background:new    ;}
	.st7{opacity:0.5;clip-path:url(#SVGID_14_);enable-background:new    ;}
	.st8{opacity:0.5;clip-path:url(#SVGID_16_);enable-background:new    ;}
	.st9{opacity:0.5;clip-path:url(#SVGID_18_);enable-background:new    ;}
	.st10{opacity:0.5;clip-path:url(#SVGID_20_);enable-background:new    ;}
	.st11{opacity:0.5;clip-path:url(#SVGID_22_);enable-background:new    ;}
	.st12{opacity:0.5;clip-path:url(#SVGID_24_);enable-background:new    ;}
	.st13{opacity:0.5;clip-path:url(#SVGID_26_);enable-background:new    ;}
	.st14{opacity:0.5;clip-path:url(#SVGID_28_);enable-background:new    ;}
	.st15{opacity:0.5;clip-path:url(#SVGID_30_);enable-background:new    ;}
	.st16{opacity:0.5;clip-path:url(#SVGID_32_);enable-background:new    ;}
	.st17{opacity:0.5;clip-path:url(#SVGID_34_);enable-background:new    ;}
	.st18{fill:#FFFFFF;}
	.st19{clip-path:url(#SVGID_36_);}
	.st20{clip-path:url(#SVGID_38_);}
	.st21{clip-path:url(#SVGID_40_);}
	.st22{clip-path:url(#SVGID_42_);}
	.st23{clip-path:url(#SVGID_44_);}
	.st24{clip-path:url(#SVGID_46_);}
	.st25{clip-path:url(#SVGID_48_);}
	.st26{clip-path:url(#SVGID_50_);}
	.st27{clip-path:url(#SVGID_52_);}
	.st28{clip-path:url(#SVGID_54_);}
	.st29{clip-path:url(#SVGID_56_);}
	.st30{clip-path:url(#SVGID_58_);}
	.st31{clip-path:url(#SVGID_60_);}
	.st32{clip-path:url(#SVGID_62_);}
	.st33{clip-path:url(#SVGID_64_);}
	.st34{clip-path:url(#SVGID_66_);}
	.st35{clip-path:url(#SVGID_68_);}
	.st36{clip-path:url(#SVGID_70_);}
	.st37{clip-path:url(#SVGID_72_);}
	.st38{clip-path:url(#SVGID_74_);}
	.st39{clip-path:url(#SVGID_76_);}
	.st40{clip-path:url(#SVGID_78_);}
	.st41{clip-path:url(#SVGID_80_);}
	.st42{clip-path:url(#SVGID_82_);}
	.st43{clip-path:url(#SVGID_84_);}
	.st44{clip-path:url(#SVGID_86_);}
	.st45{clip-path:url(#SVGID_88_);}
	.st46{clip-path:url(#SVGID_90_);}
	.st47{clip-path:url(#SVGID_92_);}
	.st48{clip-path:url(#SVGID_94_);}
	.st49{clip-path:url(#SVGID_96_);}
	.st50{clip-path:url(#SVGID_98_);}
	.st51{clip-path:url(#SVGID_100_);}
	.st52{clip-path:url(#SVGID_102_);}
	.st53{clip-path:url(#SVGID_104_);}
	.st54{clip-path:url(#SVGID_106_);}
	.st55{clip-path:url(#SVGID_108_);}
	.st56{clip-path:url(#SVGID_110_);}
	.st57{clip-path:url(#SVGID_112_);}
</style>
<g>
	<g id="layer2">
		<g id="rect2862">
			<path d="M82,54.4H218c15.4,0,27.8,12.5,27.8,27.8v135.5c0,15.4-12.5,27.8-27.8,27.8H82c-15.4,0-27.8-12.5-27.8-27.8V82.2
				C54.2,66.9,66.7,54.4,82,54.4z"/>
		</g>
	</g>
	<g id="layer6">
		<g>
			<defs>
				<path id="SVGID_1_" d="M82,54.4H218c15.4,0,27.8,12.5,27.8,27.8v135.5c0,15.4-12.5,27.8-27.8,27.8H82
					c-15.4,0-27.8-12.5-27.8-27.8V82.2C54.2,66.9,66.7,54.4,82,54.4z"/>
			</defs>
			<clipPath id="SVGID_2_">
				<use xlink:href="#SVGID_1_"  style="overflow:visible;"/>
			</clipPath>
			<g id="path3005" class="st0">
				
					<path class="st1" d="
					M149.8,149.8c0,35.1-28.5,63.6-63.6,63.6s-63.6-28.5-63.6-63.6S51,86.1,86.2,86.1S149.8,114.6,149.8,149.8z"/>
			</g>
		</g>
		<g>
			<defs>
				<path id="SVGID_3_" d="M82,54.4H218c15.4,0,27.8,12.5,27.8,27.8v135.5c0,15.4-12.5,27.8-27.8,27.8H82
					c-15.4,0-27.8-12.5-27.8-27.8V82.2C54.2,66.9,66.7,54.4,82,54.4z"/>
			</defs>
			<clipPath id="SVGID_4_">
				<use xlink:href="#SVGID_3_"  style="overflow:visible;"/>
			</clipPath>
			<g id="path3785" class="st2">
				
					<path class="st1" d="
					M132.6,67.5c0,16.8-13.6,30.4-30.4,30.4S71.9,84.3,71.8,67.5c0,0,0,0,0,0c0-16.8,13.6-30.4,30.4-30.4
					C119,37.2,132.6,50.8,132.6,67.5C132.6,67.5,132.6,67.5,132.6,67.5z"/>
			</g>
		</g>
		<g>
			<defs>
				<path id="SVGID_5_" d="M82,54.4H218c15.4,0,27.8,12.5,27.8,27.8v135.5c0,15.4-12.5,27.8-27.8,27.8H82
					c-15.4,0-27.8-12.5-27.8-27.8V82.2C54.2,66.9,66.7,54.4,82,54.4z"/>
			</defs>
			<clipPath id="SVGID_6_">
				<use xlink:href="#SVGID_5_"  style="overflow:visible;"/>
			</clipPath>
			<g id="path3799" class="st3">
				
					<path class="st1" d="
					M230.1,128.1c0,16.9-13.7,30.6-30.6,30.6S169,144.9,169,128.1s13.7-30.6,30.6-30.6S230.1,111.2,230.1,128.1z"/>
			</g>
		</g>
		<g>
			<defs>
				<path id="SVGID_7_" d="M82,54.4H218c15.4,0,27.8,12.5,27.8,27.8v135.5c0,15.4-12.5,27.8-27.8,27.8H82
					c-15.4,0-27.8-12.5-27.8-27.8V82.2C54.2,66.9,66.7,54.4,82,54.4z"/>
			</defs>
			<clipPath id="SVGID_8_">
				<use xlink:href="#SVGID_7_"  style="overflow:visible;"/>
			</clipPath>
			<g id="path3801" class="st4">
				
					<path class="st1" d="
					M166.3,72.8c0,16.7-13.5,30.2-30.2,30.2c-16.7,0-30.2-13.5-30.2-30.2c0,0,0,0,0,0c0-16.7,13.5-30.2,30.2-30.2
					S166.3,56.2,166.3,72.8C166.3,72.8,166.3,72.8,166.3,72.8z"/>
			</g>
		</g>
		<g>
			<defs>
				<path id="SVGID_9_" d="M82,54.4H218c15.4,0,27.8,12.5,27.8,27.8v135.5c0,15.4-12.5,27.8-27.8,27.8H82
					c-15.4,0-27.8-12.5-27.8-27.8V82.2C54.2,66.9,66.7,54.4,82,54.4z"/>
			</defs>
			<clipPath id="SVGID_10_">
				<use xlink:href="#SVGID_9_"  style="overflow:visible;"/>
			</clipPath>
			<g id="path3803" class="st5">
				
					<path class="st1" d="
					M93.8,217.4c0,17.1-13.9,30.9-30.9,30.9s-30.9-13.9-30.9-30.9s13.9-30.9,30.9-30.9S93.8,200.3,93.8,217.4z"/>
			</g>
		</g>
		<g>
			<defs>
				<path id="SVGID_11_" d="M82,54.4H218c15.4,0,27.8,12.5,27.8,27.8v135.5c0,15.4-12.5,27.8-27.8,27.8H82
					c-15.4,0-27.8-12.5-27.8-27.8V82.2C54.2,66.9,66.7,54.4,82,54.4z"/>
			</defs>
			<clipPath id="SVGID_12_">
				<use xlink:href="#SVGID_11_"  style="overflow:visible;"/>
			</clipPath>
			<g id="path3805" class="st6">
				
					<path class="st1" d="
					M262.6,73.6c0,16.9-13.7,30.6-30.6,30.6s-30.6-13.7-30.6-30.6s13.7-30.6,30.6-30.6S262.6,56.7,262.6,73.6z"/>
			</g>
		</g>
		<g>
			<defs>
				<path id="SVGID_13_" d="M82,54.4H218c15.4,0,27.8,12.5,27.8,27.8v135.5c0,15.4-12.5,27.8-27.8,27.8H82
					c-15.4,0-27.8-12.5-27.8-27.8V82.2C54.2,66.9,66.7,54.4,82,54.4z"/>
			</defs>
			<clipPath id="SVGID_14_">
				<use xlink:href="#SVGID_13_"  style="overflow:visible;"/>
			</clipPath>
			<g id="path3807" class="st7">
				
					<path class="st1" d="
					M228.5,63c0,16.9-13.7,30.6-30.6,30.6c-16.9,0-30.6-13.7-30.6-30.6s13.7-30.6,30.6-30.6S228.5,46.2,228.5,63L228.5,63z"/>
			</g>
		</g>
		<g>
			<defs>
				<path id="SVGID_15_" d="M82,54.4H218c15.4,0,27.8,12.5,27.8,27.8v135.5c0,15.4-12.5,27.8-27.8,27.8H82
					c-15.4,0-27.8-12.5-27.8-27.8V82.2C54.2,66.9,66.7,54.4,82,54.4z"/>
			</defs>
			<clipPath id="SVGID_16_">
				<use xlink:href="#SVGID_15_"  style="overflow:visible;"/>
			</clipPath>
			<g id="path3809" class="st8">
				
					<path class="st1" d="
					M254.8,66.2c0,17.5-14.2,31.7-31.7,31.7s-31.7-14.2-31.7-31.7s14.2-31.7,31.7-31.7S254.8,48.6,254.8,66.2z"/>
			</g>
		</g>
		<g>
			<defs>
				<path id="SVGID_17_" d="M82,54.4H218c15.4,0,27.8,12.5,27.8,27.8v135.5c0,15.4-12.5,27.8-27.8,27.8H82
					c-15.4,0-27.8-12.5-27.8-27.8V82.2C54.2,66.9,66.7,54.4,82,54.4z"/>
			</defs>
			<clipPath id="SVGID_18_">
				<use xlink:href="#SVGID_17_"  style="overflow:visible;"/>
			</clipPath>
			<g id="path3815" class="st9">
				
					<path class="st1" d="
					M109.1,102.6c0,41.5-33.7,75.2-75.2,75.2s-75.2-33.7-75.2-75.2s33.7-75.2,75.2-75.2S109.1,61.1,109.1,102.6z"/>
			</g>
		</g>
		<g>
			<defs>
				<path id="SVGID_19_" d="M82,54.4H218c15.4,0,27.8,12.5,27.8,27.8v135.5c0,15.4-12.5,27.8-27.8,27.8H82
					c-15.4,0-27.8-12.5-27.8-27.8V82.2C54.2,66.9,66.7,54.4,82,54.4z"/>
			</defs>
			<clipPath id="SVGID_20_">
				<use xlink:href="#SVGID_19_"  style="overflow:visible;"/>
			</clipPath>
			<g id="path3823" class="st10">
				
					<path class="st1" d="
					M201.1,141.6c0,16.8-13.6,30.4-30.4,30.4s-30.4-13.6-30.4-30.4c0,0,0,0,0,0c0-16.8,13.6-30.4,30.4-30.4
					C187.5,111.2,201.1,124.8,201.1,141.6C201.1,141.6,201.1,141.6,201.1,141.6z"/>
			</g>
		</g>
		<g>
			<defs>
				<path id="SVGID_21_" d="M82,54.4H218c15.4,0,27.8,12.5,27.8,27.8v135.5c0,15.4-12.5,27.8-27.8,27.8H82
					c-15.4,0-27.8-12.5-27.8-27.8V82.2C54.2,66.9,66.7,54.4,82,54.4z"/>
			</defs>
			<clipPath id="SVGID_22_">
				<use xlink:href="#SVGID_21_"  style="overflow:visible;"/>
			</clipPath>
			<g id="path3829" class="st11">
				
					<path class="st1" d="
					M201.1,34c0,16.9-13.7,30.6-30.6,30.6S140,50.9,140,34s13.7-30.6,30.6-30.6S201.1,17.2,201.1,34z"/>
			</g>
		</g>
		<g>
			<defs>
				<path id="SVGID_23_" d="M82,54.4H218c15.4,0,27.8,12.5,27.8,27.8v135.5c0,15.4-12.5,27.8-27.8,27.8H82
					c-15.4,0-27.8-12.5-27.8-27.8V82.2C54.2,66.9,66.7,54.4,82,54.4z"/>
			</defs>
			<clipPath id="SVGID_24_">
				<use xlink:href="#SVGID_23_"  style="overflow:visible;"/>
			</clipPath>
			<g id="path3829-1" class="st12">
				
					<path class="st1" d="
					M163.4,40.1c0,16.9-13.7,30.6-30.6,30.6S102.3,57,102.3,40.1S116,9.6,132.9,9.6S163.4,23.3,163.4,40.1z"/>
			</g>
		</g>
		<g>
			<defs>
				<path id="SVGID_25_" d="M82,54.4H218c15.4,0,27.8,12.5,27.8,27.8v135.5c0,15.4-12.5,27.8-27.8,27.8H82
					c-15.4,0-27.8-12.5-27.8-27.8V82.2C54.2,66.9,66.7,54.4,82,54.4z"/>
			</defs>
			<clipPath id="SVGID_26_">
				<use xlink:href="#SVGID_25_"  style="overflow:visible;"/>
			</clipPath>
			<g id="path3829-7" class="st13">
				
					<path class="st1" d="
					M195.3,49.6c0,16.9-13.7,30.6-30.6,30.6s-30.6-13.7-30.6-30.6S147.9,19,164.7,19S195.3,32.7,195.3,49.6z"/>
			</g>
		</g>
		<g>
			<defs>
				<path id="SVGID_27_" d="M82,54.4H218c15.4,0,27.8,12.5,27.8,27.8v135.5c0,15.4-12.5,27.8-27.8,27.8H82
					c-15.4,0-27.8-12.5-27.8-27.8V82.2C54.2,66.9,66.7,54.4,82,54.4z"/>
			</defs>
			<clipPath id="SVGID_28_">
				<use xlink:href="#SVGID_27_"  style="overflow:visible;"/>
			</clipPath>
			<g id="path3829-7-4" class="st14">
				
					<path class="st1" d="
					M134.4,40.7c0,16.9-13.7,30.6-30.6,30.6S73.3,57.6,73.3,40.7s13.7-30.6,30.6-30.6S134.4,23.8,134.4,40.7z"/>
			</g>
		</g>
		<g>
			<defs>
				<path id="SVGID_29_" d="M82,54.4H218c15.4,0,27.8,12.5,27.8,27.8v135.5c0,15.4-12.5,27.8-27.8,27.8H82
					c-15.4,0-27.8-12.5-27.8-27.8V82.2C54.2,66.9,66.7,54.4,82,54.4z"/>
			</defs>
			<clipPath id="SVGID_30_">
				<use xlink:href="#SVGID_29_"  style="overflow:visible;"/>
			</clipPath>
			<g id="path3827" class="st15">
				
					<path class="st1" d="
					M201.1,99.7c0,16.8-13.6,30.4-30.4,30.4s-30.4-13.6-30.4-30.4c0,0,0,0,0,0c0-16.8,13.6-30.4,30.4-30.4
					C187.5,69.3,201.1,82.9,201.1,99.7C201.1,99.7,201.1,99.7,201.1,99.7z"/>
			</g>
		</g>
		<g>
			<defs>
				<path id="SVGID_31_" d="M82,54.4H218c15.4,0,27.8,12.5,27.8,27.8v135.5c0,15.4-12.5,27.8-27.8,27.8H82
					c-15.4,0-27.8-12.5-27.8-27.8V82.2C54.2,66.9,66.7,54.4,82,54.4z"/>
			</defs>
			<clipPath id="SVGID_32_">
				<use xlink:href="#SVGID_31_"  style="overflow:visible;"/>
			</clipPath>
			<g id="path3799-0" class="st16">
				
					<path class="st1" d="
					M281.9,136.9c0,16.9-13.7,30.6-30.6,30.6s-30.6-13.7-30.6-30.6s13.7-30.6,30.6-30.6S281.9,120.1,281.9,136.9z"/>
			</g>
		</g>
		<g>
			<defs>
				<path id="SVGID_33_" d="M82,54.4H218c15.4,0,27.8,12.5,27.8,27.8v135.5c0,15.4-12.5,27.8-27.8,27.8H82
					c-15.4,0-27.8-12.5-27.8-27.8V82.2C54.2,66.9,66.7,54.4,82,54.4z"/>
			</defs>
			<clipPath id="SVGID_34_">
				<use xlink:href="#SVGID_33_"  style="overflow:visible;"/>
			</clipPath>
			<g id="path3799-4" class="st17">
				
					<path class="st1" d="
					M282.5,97.1c0,16.9-13.7,30.6-30.6,30.6s-30.6-13.7-30.6-30.6s13.7-30.6,30.6-30.6S282.5,80.2,282.5,97.1z"/>
			</g>
		</g>
	</g>
	<g id="layer7">
		<g id="path3996">
			
				<path class="st18" d="
				M104,67.8c0,1-0.8,1.8-1.8,1.8s-1.8-0.8-1.8-1.8c0,0,0,0,0,0c0-1,0.8-1.8,1.8-1.8C103.2,66.1,104,66.9,104,67.8
				C104,67.8,104,67.8,104,67.8z"/>
		</g>
		<g id="path3996-8">
			
				<path class="st18" d="
				M137.5,72.5c0,1-0.8,1.8-1.8,1.8c-1,0-1.8-0.8-1.8-1.8c0,0,0,0,0,0c0-1,0.8-1.8,1.8-1.8C136.7,70.8,137.5,71.6,137.5,72.5
				C137.5,72.5,137.5,72.5,137.5,72.5z"/>
		</g>
		<g id="path3996-4">
			
				<path class="st18" d="
				M87.9,150.1c0,1-0.8,1.8-1.8,1.8c-1,0-1.8-0.8-1.8-1.8c0,0,0,0,0,0c0-1,0.8-1.8,1.8-1.8C87.1,148.3,87.9,149.1,87.9,150.1
				C87.9,150.1,87.9,150.1,87.9,150.1z"/>
		</g>
		<g id="path3996-5">
			
				<path class="st18" d="
				M201.2,128.8c0,1-0.8,1.8-1.8,1.8c-1,0-1.8-0.8-1.8-1.8c0,0,0,0,0,0c0-1,0.8-1.8,1.8-1.8C200.4,127,201.2,127.8,201.2,128.8
				C201.2,128.8,201.2,128.8,201.2,128.8z"/>
		</g>
		<g id="path3996-7">
			
				<path class="st18" d="
				M199.8,62.8c0,1-0.8,1.8-1.8,1.8c-1,0-1.8-0.8-1.8-1.8c0,0,0,0,0,0c0-1,0.8-1.8,1.8-1.8C199,61.1,199.8,61.9,199.8,62.8
				C199.8,62.8,199.8,62.8,199.8,62.8z"/>
		</g>
		<g id="path3996-52">
			
				<path class="st18" d="
				M224.2,66.2c0,1-0.8,1.8-1.8,1.8c-1,0-1.8-0.8-1.8-1.8c0,0,0,0,0,0c0-1,0.8-1.8,1.8-1.8C223.4,64.4,224.2,65.2,224.2,66.2
				C224.2,66.2,224.2,66.2,224.2,66.2z"/>
		</g>
		<g id="path3996-6">
			
				<path class="st18" d="
				M233.9,73.1c0,1-0.8,1.8-1.8,1.8s-1.8-0.8-1.8-1.8c0,0,0,0,0,0c0-1,0.8-1.8,1.8-1.8C233.1,71.3,233.9,72.1,233.9,73.1
				C233.9,73.1,233.9,73.1,233.9,73.1z"/>
		</g>
		<g id="path3996-4-1">
			
				<path class="st18" d="
				M64.5,217.9c0,1-0.8,1.8-1.8,1.8c-1,0-1.8-0.8-1.8-1.8c0,0,0,0,0,0c0-1,0.8-1.8,1.8-1.8S64.5,216.9,64.5,217.9
				C64.5,217.9,64.5,217.9,64.5,217.9z"/>
		</g>
	</g>
	<g id="layer8">
		<g>
			<defs>
				<path id="SVGID_35_" d="M82,54.4H218c15.4,0,27.8,12.5,27.8,27.8v135.5c0,15.4-12.5,27.8-27.8,27.8H82
					c-15.4,0-27.8-12.5-27.8-27.8V82.2C54.2,66.9,66.7,54.4,82,54.4z"/>
			</defs>
			<clipPath id="SVGID_36_">
				<use xlink:href="#SVGID_35_"  style="overflow:visible;"/>
			</clipPath>
			<g id="path4074" class="st19">
				
					<rect x="52" y="109" transform="matrix(0.1895 -0.9819 0.9819 0.1895 -30.9321 181.2045)" class="st18" width="84.6" height="0.8"/>
			</g>
		</g>
		<g>
			<defs>
				<path id="SVGID_37_" d="M82,54.4H218c15.4,0,27.8,12.5,27.8,27.8v135.5c0,15.4-12.5,27.8-27.8,27.8H82
					c-15.4,0-27.8-12.5-27.8-27.8V82.2C54.2,66.9,66.7,54.4,82,54.4z"/>
			</defs>
			<clipPath id="SVGID_38_">
				<use xlink:href="#SVGID_37_"  style="overflow:visible;"/>
			</clipPath>
			<g id="path4076" class="st20">
				
					<rect x="152.6" y="64" transform="matrix(0.6239 -0.7815 0.7815 0.6239 -9.6068 151.9026)" class="st18" width="0.8" height="44"/>
			</g>
		</g>
		<g>
			<defs>
				<path id="SVGID_39_" d="M82,54.4H218c15.4,0,27.8,12.5,27.8,27.8v135.5c0,15.4-12.5,27.8-27.8,27.8H82
					c-15.4,0-27.8-12.5-27.8-27.8V82.2C54.2,66.9,66.7,54.4,82,54.4z"/>
			</defs>
			<clipPath id="SVGID_40_">
				<use xlink:href="#SVGID_39_"  style="overflow:visible;"/>
			</clipPath>
			<g id="path4078" class="st21">
				
					<rect x="179.9" y="81.5" transform="matrix(0.7221 -0.6918 0.6918 0.7221 -25.2444 155.0066)" class="st18" width="0.8" height="54.9"/>
			</g>
		</g>
		<g>
			<defs>
				<path id="SVGID_41_" d="M82,54.4H218c15.4,0,27.8,12.5,27.8,27.8v135.5c0,15.4-12.5,27.8-27.8,27.8H82
					c-15.4,0-27.8-12.5-27.8-27.8V82.2C54.2,66.9,66.7,54.4,82,54.4z"/>
			</defs>
			<clipPath id="SVGID_42_">
				<use xlink:href="#SVGID_41_"  style="overflow:visible;"/>
			</clipPath>
			<g id="path4109" class="st22">
				
					<rect x="118.8" y="53.4" transform="matrix(0.138 -0.9904 0.9904 0.138 33.026 178.7888)" class="st18" width="0.8" height="34.1"/>
			</g>
		</g>
		<g>
			<defs>
				<path id="SVGID_43_" d="M82,54.4H218c15.4,0,27.8,12.5,27.8,27.8v135.5c0,15.4-12.5,27.8-27.8,27.8H82
					c-15.4,0-27.8-12.5-27.8-27.8V82.2C54.2,66.9,66.7,54.4,82,54.4z"/>
			</defs>
			<clipPath id="SVGID_44_">
				<use xlink:href="#SVGID_43_"  style="overflow:visible;"/>
			</clipPath>
			<g id="path4111" class="st23">
				
					<rect x="73.9" y="118.2" transform="matrix(0.7323 -0.681 0.681 0.7323 -48.6374 113.5152)" class="st18" width="92.3" height="0.8"/>
			</g>
		</g>
		<g>
			<defs>
				<path id="SVGID_45_" d="M82,54.4H218c15.4,0,27.8,12.5,27.8,27.8v135.5c0,15.4-12.5,27.8-27.8,27.8H82
					c-15.4,0-27.8-12.5-27.8-27.8V82.2C54.2,66.9,66.7,54.4,82,54.4z"/>
			</defs>
			<clipPath id="SVGID_46_">
				<use xlink:href="#SVGID_45_"  style="overflow:visible;"/>
			</clipPath>
			<g id="path4135" class="st24">
				
					<rect x="38.1" y="183" transform="matrix(0.3262 -0.9453 0.9453 0.3262 -123.1161 194.1548)" class="st18" width="73" height="0.8"/>
			</g>
		</g>
		<g>
			<defs>
				<path id="SVGID_47_" d="M82,54.4H218c15.4,0,27.8,12.5,27.8,27.8v135.5c0,15.4-12.5,27.8-27.8,27.8H82
					c-15.4,0-27.8-12.5-27.8-27.8V82.2C54.2,66.9,66.7,54.4,82,54.4z"/>
			</defs>
			<clipPath id="SVGID_48_">
				<use xlink:href="#SVGID_47_"  style="overflow:visible;"/>
			</clipPath>
			<g id="path4137" class="st25">
				
					<rect x="175.9" y="133.9" transform="matrix(0.903 -0.4296 0.4296 0.903 -39.4282 93.8614)" class="st18" width="24.5" height="0.8"/>
			</g>
		</g>
		<g>
			<defs>
				<path id="SVGID_49_" d="M82,54.4H218c15.4,0,27.8,12.5,27.8,27.8v135.5c0,15.4-12.5,27.8-27.8,27.8H82
					c-15.4,0-27.8-12.5-27.8-27.8V82.2C54.2,66.9,66.7,54.4,82,54.4z"/>
			</defs>
			<clipPath id="SVGID_50_">
				<use xlink:href="#SVGID_49_"  style="overflow:visible;"/>
			</clipPath>
			<g id="path4139" class="st26">
				<polygon class="st18" points="42.4,179.7 42,179.1 86.1,149.7 176.5,140.8 176.6,141.6 86.4,150.4 				"/>
			</g>
		</g>
		<g>
			<defs>
				<path id="SVGID_51_" d="M82,54.4H218c15.4,0,27.8,12.5,27.8,27.8v135.5c0,15.4-12.5,27.8-27.8,27.8H82
					c-15.4,0-27.8-12.5-27.8-27.8V82.2C54.2,66.9,66.7,54.4,82,54.4z"/>
			</defs>
			<clipPath id="SVGID_52_">
				<use xlink:href="#SVGID_51_"  style="overflow:visible;"/>
			</clipPath>
			<g id="path4141" class="st27">
				
					<rect x="61.2" y="94.7" transform="matrix(0.6814 -0.7319 0.7319 0.6814 -73.7768 85.752)" class="st18" width="0.8" height="65.9"/>
			</g>
		</g>
		<g>
			<defs>
				<path id="SVGID_53_" d="M82,54.4H218c15.4,0,27.8,12.5,27.8,27.8v135.5c0,15.4-12.5,27.8-27.8,27.8H82
					c-15.4,0-27.8-12.5-27.8-27.8V82.2C54.2,66.9,66.7,54.4,82,54.4z"/>
			</defs>
			<clipPath id="SVGID_54_">
				<use xlink:href="#SVGID_53_"  style="overflow:visible;"/>
			</clipPath>
			<g id="path4143" class="st28">
				
					<rect x="30.6" y="85.5" transform="matrix(0.8838 -0.4678 0.4678 0.8838 -32.2054 42.1735)" class="st18" width="76.5" height="0.8"/>
			</g>
		</g>
		<g>
			<defs>
				<path id="SVGID_55_" d="M82,54.4H218c15.4,0,27.8,12.5,27.8,27.8v135.5c0,15.4-12.5,27.8-27.8,27.8H82
					c-15.4,0-27.8-12.5-27.8-27.8V82.2C54.2,66.9,66.7,54.4,82,54.4z"/>
			</defs>
			<clipPath id="SVGID_56_">
				<use xlink:href="#SVGID_55_"  style="overflow:visible;"/>
			</clipPath>
			<g id="path4145" class="st29">
				
					<rect x="139.5" y="71.8" transform="matrix(0.9428 -0.3334 0.3334 0.9428 -19.956 51.4338)" class="st18" width="0.8" height="24.1"/>
			</g>
		</g>
		<g>
			<defs>
				<path id="SVGID_57_" d="M82,54.4H218c15.4,0,27.8,12.5,27.8,27.8v135.5c0,15.4-12.5,27.8-27.8,27.8H82
					c-15.4,0-27.8-12.5-27.8-27.8V82.2C54.2,66.9,66.7,54.4,82,54.4z"/>
			</defs>
			<clipPath id="SVGID_58_">
				<use xlink:href="#SVGID_57_"  style="overflow:visible;"/>
			</clipPath>
			<g id="path4147" class="st30">
				
					<rect x="119.1" y="59.2" transform="matrix(0.5562 -0.831 0.831 0.5562 -13.3162 134.7402)" class="st18" width="0.8" height="41.3"/>
			</g>
		</g>
		<g>
			<defs>
				<path id="SVGID_59_" d="M82,54.4H218c15.4,0,27.8,12.5,27.8,27.8v135.5c0,15.4-12.5,27.8-27.8,27.8H82
					c-15.4,0-27.8-12.5-27.8-27.8V82.2C54.2,66.9,66.7,54.4,82,54.4z"/>
			</defs>
			<clipPath id="SVGID_60_">
				<use xlink:href="#SVGID_59_"  style="overflow:visible;"/>
			</clipPath>
			<g id="path4149" class="st31">
				
					<rect x="225.8" y="105.1" transform="matrix(0.1513 -0.9885 0.9885 0.1513 60.8528 336.0905)" class="st18" width="0.8" height="54.9"/>
			</g>
		</g>
		<g>
			<defs>
				<path id="SVGID_61_" d="M82,54.4H218c15.4,0,27.8,12.5,27.8,27.8v135.5c0,15.4-12.5,27.8-27.8,27.8H82
					c-15.4,0-27.8-12.5-27.8-27.8V82.2C54.2,66.9,66.7,54.4,82,54.4z"/>
			</defs>
			<clipPath id="SVGID_62_">
				<use xlink:href="#SVGID_61_"  style="overflow:visible;"/>
			</clipPath>
			<g id="path4151" class="st32">
				
					<rect x="240.7" y="70.9" transform="matrix(0.7649 -0.6441 0.6441 0.7649 2.1335 175.218)" class="st18" width="0.8" height="27.5"/>
			</g>
		</g>
		<g>
			<defs>
				<path id="SVGID_63_" d="M82,54.4H218c15.4,0,27.8,12.5,27.8,27.8v135.5c0,15.4-12.5,27.8-27.8,27.8H82
					c-15.4,0-27.8-12.5-27.8-27.8V82.2C54.2,66.9,66.7,54.4,82,54.4z"/>
			</defs>
			<clipPath id="SVGID_64_">
				<use xlink:href="#SVGID_63_"  style="overflow:visible;"/>
			</clipPath>
			<g id="path4153" class="st33">
				<rect x="227" y="63.8" transform="matrix(0.638 -0.77 0.77 0.638 28.3027 200.4932)" class="st18" width="0.8" height="12.6"/>
			</g>
		</g>
		<g>
			<defs>
				<path id="SVGID_65_" d="M82,54.4H218c15.4,0,27.8,12.5,27.8,27.8v135.5c0,15.4-12.5,27.8-27.8,27.8H82
					c-15.4,0-27.8-12.5-27.8-27.8V82.2C54.2,66.9,66.7,54.4,82,54.4z"/>
			</defs>
			<clipPath id="SVGID_66_">
				<use xlink:href="#SVGID_65_"  style="overflow:visible;"/>
			</clipPath>
			<g id="path4155" class="st34">
				
					<rect x="166.3" y="79.3" transform="matrix(0.5737 -0.819 0.819 0.5737 14.2387 186.7588)" class="st18" width="40.6" height="0.8"/>
			</g>
		</g>
		<g>
			<defs>
				<path id="SVGID_67_" d="M82,54.4H218c15.4,0,27.8,12.5,27.8,27.8v135.5c0,15.4-12.5,27.8-27.8,27.8H82
					c-15.4,0-27.8-12.5-27.8-27.8V82.2C54.2,66.9,66.7,54.4,82,54.4z"/>
			</defs>
			<clipPath id="SVGID_68_">
				<use xlink:href="#SVGID_67_"  style="overflow:visible;"/>
			</clipPath>
			<g id="path4157" class="st35">
				
					<rect x="170.2" y="81.8" transform="matrix(0.8278 -0.561 0.561 0.8278 -11.8688 125.7159)" class="st18" width="57.2" height="0.8"/>
			</g>
		</g>
		<g>
			<defs>
				<path id="SVGID_69_" d="M82,54.4H218c15.4,0,27.8,12.5,27.8,27.8v135.5c0,15.4-12.5,27.8-27.8,27.8H82
					c-15.4,0-27.8-12.5-27.8-27.8V82.2C54.2,66.9,66.7,54.4,82,54.4z"/>
			</defs>
			<clipPath id="SVGID_70_">
				<use xlink:href="#SVGID_69_"  style="overflow:visible;"/>
			</clipPath>
			<g id="path4159" class="st36">
				
					<rect x="100.3" y="46.3" transform="matrix(0.9881 -0.154 0.154 0.9881 -7.5956 16.1826)" class="st18" width="0.8" height="21.6"/>
			</g>
		</g>
		<g>
			<defs>
				<path id="SVGID_71_" d="M82,54.4H218c15.4,0,27.8,12.5,27.8,27.8v135.5c0,15.4-12.5,27.8-27.8,27.8H82
					c-15.4,0-27.8-12.5-27.8-27.8V82.2C54.2,66.9,66.7,54.4,82,54.4z"/>
			</defs>
			<clipPath id="SVGID_72_">
				<use xlink:href="#SVGID_71_"  style="overflow:visible;"/>
			</clipPath>
			<g id="path4161" class="st37">
				
					<rect x="210.3" y="52.4" transform="matrix(0.1351 -0.9908 0.9908 0.1351 118.0303 264.702)" class="st18" width="0.8" height="24.6"/>
			</g>
		</g>
		<g>
			<defs>
				<path id="SVGID_73_" d="M82,54.4H218c15.4,0,27.8,12.5,27.8,27.8v135.5c0,15.4-12.5,27.8-27.8,27.8H82
					c-15.4,0-27.8-12.5-27.8-27.8V82.2C54.2,66.9,66.7,54.4,82,54.4z"/>
			</defs>
			<clipPath id="SVGID_74_">
				<use xlink:href="#SVGID_73_"  style="overflow:visible;"/>
			</clipPath>
			<g id="path4163" class="st38">
				
					<rect x="93.7" y="55.9" transform="matrix(0.3329 -0.943 0.943 0.3329 17.772 137.7077)" class="st18" width="25" height="0.8"/>
			</g>
		</g>
		<g>
			<defs>
				<path id="SVGID_75_" d="M82,54.4H218c15.4,0,27.8,12.5,27.8,27.8v135.5c0,15.4-12.5,27.8-27.8,27.8H82
					c-15.4,0-27.8-12.5-27.8-27.8V82.2C54.2,66.9,66.7,54.4,82,54.4z"/>
			</defs>
			<clipPath id="SVGID_76_">
				<use xlink:href="#SVGID_75_"  style="overflow:visible;"/>
			</clipPath>
			<g id="path4165" class="st39">
				
					<rect x="125.1" y="44.4" transform="matrix(0.7562 -0.6543 0.6543 0.7562 -9.1506 96.8891)" class="st18" width="0.8" height="32.6"/>
			</g>
		</g>
		<g>
			<defs>
				<path id="SVGID_77_" d="M82,54.4H218c15.4,0,27.8,12.5,27.8,27.8v135.5c0,15.4-12.5,27.8-27.8,27.8H82
					c-15.4,0-27.8-12.5-27.8-27.8V82.2C54.2,66.9,66.7,54.4,82,54.4z"/>
			</defs>
			<clipPath id="SVGID_78_">
				<use xlink:href="#SVGID_77_"  style="overflow:visible;"/>
			</clipPath>
			<g id="path4167" class="st40">
				
					<rect x="150.6" y="75.8" transform="matrix(0.8522 -0.5232 0.5232 0.8522 -13.8328 103.5079)" class="st18" width="51.4" height="0.8"/>
			</g>
		</g>
		<g>
			<defs>
				<path id="SVGID_79_" d="M82,54.4H218c15.4,0,27.8,12.5,27.8,27.8v135.5c0,15.4-12.5,27.8-27.8,27.8H82
					c-15.4,0-27.8-12.5-27.8-27.8V82.2C54.2,66.9,66.7,54.4,82,54.4z"/>
			</defs>
			<clipPath id="SVGID_80_">
				<use xlink:href="#SVGID_79_"  style="overflow:visible;"/>
			</clipPath>
			<g id="path4169" class="st41">
				
					<rect x="228.5" y="66.4" transform="matrix(0.5116 -0.8592 0.8592 0.5116 57.905 235.5122)" class="st18" width="15.2" height="0.8"/>
			</g>
		</g>
		<g>
			<defs>
				<path id="SVGID_81_" d="M82,54.4H218c15.4,0,27.8,12.5,27.8,27.8v135.5c0,15.4-12.5,27.8-27.8,27.8H82
					c-15.4,0-27.8-12.5-27.8-27.8V82.2C54.2,66.9,66.7,54.4,82,54.4z"/>
			</defs>
			<clipPath id="SVGID_82_">
				<use xlink:href="#SVGID_81_"  style="overflow:visible;"/>
			</clipPath>
			<g id="path4173" class="st42">
				
					<rect x="130.9" y="60.9" transform="matrix(0.7027 -0.7115 0.7115 0.7027 -2.181371e-04 122.5586)" class="st18" width="31.5" height="0.8"/>
			</g>
		</g>
		<g>
			<defs>
				<path id="SVGID_83_" d="M82,54.4H218c15.4,0,27.8,12.5,27.8,27.8v135.5c0,15.4-12.5,27.8-27.8,27.8H82
					c-15.4,0-27.8-12.5-27.8-27.8V82.2C54.2,66.9,66.7,54.4,82,54.4z"/>
			</defs>
			<clipPath id="SVGID_84_">
				<use xlink:href="#SVGID_83_"  style="overflow:visible;"/>
			</clipPath>
			<g id="path4175" class="st43">
				
					<rect x="193.4" y="56" transform="matrix(0.2723 -0.9622 0.9622 0.2723 91.2267 233.4863)" class="st18" width="13.2" height="0.8"/>
			</g>
		</g>
		<g>
			<defs>
				<path id="SVGID_85_" d="M82,54.4H218c15.4,0,27.8,12.5,27.8,27.8v135.5c0,15.4-12.5,27.8-27.8,27.8H82
					c-15.4,0-27.8-12.5-27.8-27.8V82.2C54.2,66.9,66.7,54.4,82,54.4z"/>
			</defs>
			<clipPath id="SVGID_86_">
				<use xlink:href="#SVGID_85_"  style="overflow:visible;"/>
			</clipPath>
			<g id="path4177" class="st44">
				
					<rect x="232.2" y="72.4" transform="matrix(0.9895 -0.1446 0.1446 0.9895 -8.0011 35.4403)" class="st18" width="15.4" height="0.8"/>
			</g>
		</g>
		<g>
			<defs>
				<path id="SVGID_87_" d="M82,54.4H218c15.4,0,27.8,12.5,27.8,27.8v135.5c0,15.4-12.5,27.8-27.8,27.8H82
					c-15.4,0-27.8-12.5-27.8-27.8V82.2C54.2,66.9,66.7,54.4,82,54.4z"/>
			</defs>
			<clipPath id="SVGID_88_">
				<use xlink:href="#SVGID_87_"  style="overflow:visible;"/>
			</clipPath>
			<g id="path4179" class="st45">
				
					<rect x="128.4" y="59" transform="matrix(0.495 -0.8689 0.8689 0.495 20.7516 154.3854)" class="st18" width="29.7" height="0.8"/>
			</g>
		</g>
		<g>
			<defs>
				<path id="SVGID_89_" d="M82,54.4H218c15.4,0,27.8,12.5,27.8,27.8v135.5c0,15.4-12.5,27.8-27.8,27.8H82
					c-15.4,0-27.8-12.5-27.8-27.8V82.2C54.2,66.9,66.7,54.4,82,54.4z"/>
			</defs>
			<clipPath id="SVGID_90_">
				<use xlink:href="#SVGID_89_"  style="overflow:visible;"/>
			</clipPath>
			<g id="path4181" class="st46">
				<rect x="197" y="57.2" transform="matrix(0.912 -0.4101 0.4101 0.912 -5.081 91.3922)" class="st18" width="27" height="0.8"/>
			</g>
		</g>
		<g>
			<defs>
				<path id="SVGID_91_" d="M82,54.4H218c15.4,0,27.8,12.5,27.8,27.8v135.5c0,15.4-12.5,27.8-27.8,27.8H82
					c-15.4,0-27.8-12.5-27.8-27.8V82.2C54.2,66.9,66.7,54.4,82,54.4z"/>
			</defs>
			<clipPath id="SVGID_92_">
				<use xlink:href="#SVGID_91_"  style="overflow:visible;"/>
			</clipPath>
			<g id="path4183" class="st47">
				
					<rect x="129.2" y="44.1" transform="matrix(0.9157 -0.4018 0.4018 0.9157 -12.7531 57.0462)" class="st18" width="0.8" height="29.6"/>
			</g>
		</g>
		<g>
			<defs>
				<path id="SVGID_93_" d="M82,54.4H218c15.4,0,27.8,12.5,27.8,27.8v135.5c0,15.4-12.5,27.8-27.8,27.8H82
					c-15.4,0-27.8-12.5-27.8-27.8V82.2C54.2,66.9,66.7,54.4,82,54.4z"/>
			</defs>
			<clipPath id="SVGID_94_">
				<use xlink:href="#SVGID_93_"  style="overflow:visible;"/>
			</clipPath>
			<g id="path4185" class="st48">
				
					<rect x="205.5" y="36.3" transform="matrix(0.5135 -0.8581 0.8581 0.5135 52.1243 203.9652)" class="st18" width="0.8" height="39.4"/>
			</g>
		</g>
		<g>
			<defs>
				<path id="SVGID_95_" d="M82,54.4H218c15.4,0,27.8,12.5,27.8,27.8v135.5c0,15.4-12.5,27.8-27.8,27.8H82
					c-15.4,0-27.8-12.5-27.8-27.8V82.2C54.2,66.9,66.7,54.4,82,54.4z"/>
			</defs>
			<clipPath id="SVGID_96_">
				<use xlink:href="#SVGID_95_"  style="overflow:visible;"/>
			</clipPath>
			<g id="path4187" class="st49">
				
					<rect x="130.8" y="58.7" transform="matrix(0.7861 -0.6181 0.6181 0.7861 -3.7743 107.2216)" class="st18" width="44.4" height="0.8"/>
			</g>
		</g>
		<g>
			<defs>
				<path id="SVGID_97_" d="M82,54.4H218c15.4,0,27.8,12.5,27.8,27.8v135.5c0,15.4-12.5,27.8-27.8,27.8H82
					c-15.4,0-27.8-12.5-27.8-27.8V82.2C54.2,66.9,66.7,54.4,82,54.4z"/>
			</defs>
			<clipPath id="SVGID_98_">
				<use xlink:href="#SVGID_97_"  style="overflow:visible;"/>
			</clipPath>
			<g id="path4189" class="st50">
				
					<rect x="137.1" y="66.8" transform="matrix(0.3985 -0.9172 0.9172 0.3985 33.1247 184.9796)" class="st18" width="41.1" height="0.8"/>
			</g>
		</g>
		<g>
			<defs>
				<path id="SVGID_99_" d="M82,54.4H218c15.4,0,27.8,12.5,27.8,27.8v135.5c0,15.4-12.5,27.8-27.8,27.8H82
					c-15.4,0-27.8-12.5-27.8-27.8V82.2C54.2,66.9,66.7,54.4,82,54.4z"/>
			</defs>
			<clipPath id="SVGID_100_">
				<use xlink:href="#SVGID_99_"  style="overflow:visible;"/>
			</clipPath>
			<g id="path4191" class="st51">
				
					<rect x="241.7" y="66.2" transform="matrix(0.2457 -0.9693 0.9693 0.2457 108.5535 292.261)" class="st18" width="0.8" height="20.3"/>
			</g>
		</g>
		<g>
			<defs>
				<path id="SVGID_101_" d="M82,54.4H218c15.4,0,27.8,12.5,27.8,27.8v135.5c0,15.4-12.5,27.8-27.8,27.8H82
					c-15.4,0-27.8-12.5-27.8-27.8V82.2C54.2,66.9,66.7,54.4,82,54.4z"/>
			</defs>
			<clipPath id="SVGID_102_">
				<use xlink:href="#SVGID_101_"  style="overflow:visible;"/>
			</clipPath>
			<g id="path4193" class="st52">
				
					<rect x="215" y="43.6" transform="matrix(0.7934 -0.6087 0.6087 0.7934 10.2198 142.7007)" class="st18" width="0.8" height="25.5"/>
			</g>
		</g>
		<g>
			<defs>
				<path id="SVGID_103_" d="M82,54.4H218c15.4,0,27.8,12.5,27.8,27.8v135.5c0,15.4-12.5,27.8-27.8,27.8H82
					c-15.4,0-27.8-12.5-27.8-27.8V82.2C54.2,66.9,66.7,54.4,82,54.4z"/>
			</defs>
			<clipPath id="SVGID_104_">
				<use xlink:href="#SVGID_103_"  style="overflow:visible;"/>
			</clipPath>
			<g id="path4195" class="st53">
				
					<rect x="219.9" y="39.2" transform="matrix(0.774 -0.6332 0.6332 0.774 12.4921 152.8455)" class="st18" width="0.8" height="39.4"/>
			</g>
		</g>
		<g>
			<defs>
				<path id="SVGID_105_" d="M82,54.4H218c15.4,0,27.8,12.5,27.8,27.8v135.5c0,15.4-12.5,27.8-27.8,27.8H82
					c-15.4,0-27.8-12.5-27.8-27.8V82.2C54.2,66.9,66.7,54.4,82,54.4z"/>
			</defs>
			<clipPath id="SVGID_106_">
				<use xlink:href="#SVGID_105_"  style="overflow:visible;"/>
			</clipPath>
			<g id="path4197" class="st54">
				
					<rect x="235.3" y="53.4" transform="matrix(1.051952e-02 -0.9999 0.9999 1.051952e-02 166.6883 301.5365)" class="st18" width="0.8" height="26.3"/>
			</g>
		</g>
		<g>
			<defs>
				<path id="SVGID_107_" d="M82,54.4H218c15.4,0,27.8,12.5,27.8,27.8v135.5c0,15.4-12.5,27.8-27.8,27.8H82
					c-15.4,0-27.8-12.5-27.8-27.8V82.2C54.2,66.9,66.7,54.4,82,54.4z"/>
			</defs>
			<clipPath id="SVGID_108_">
				<use xlink:href="#SVGID_107_"  style="overflow:visible;"/>
			</clipPath>
			<g id="path4199" class="st55">
				
					<rect x="183" y="41.1" transform="matrix(0.4013 -0.916 0.916 0.4013 57.5812 202.0631)" class="st18" width="0.8" height="31.8"/>
			</g>
		</g>
		<g>
			<defs>
				<path id="SVGID_109_" d="M82,54.4H218c15.4,0,27.8,12.5,27.8,27.8v135.5c0,15.4-12.5,27.8-27.8,27.8H82
					c-15.4,0-27.8-12.5-27.8-27.8V82.2C54.2,66.9,66.7,54.4,82,54.4z"/>
			</defs>
			<clipPath id="SVGID_110_">
				<use xlink:href="#SVGID_109_"  style="overflow:visible;"/>
			</clipPath>
			<g id="path4201" class="st56">
				
					<rect x="219.6" y="58.8" transform="matrix(0.7561 -0.6545 0.6545 0.7561 17.4977 165.3532)" class="st18" width="22" height="0.8"/>
			</g>
		</g>
		<g>
			<defs>
				<path id="SVGID_111_" d="M82,54.4H218c15.4,0,27.8,12.5,27.8,27.8v135.5c0,15.4-12.5,27.8-27.8,27.8H82
					c-15.4,0-27.8-12.5-27.8-27.8V82.2C54.2,66.9,66.7,54.4,82,54.4z"/>
			</defs>
			<clipPath id="SVGID_112_">
				<use xlink:href="#SVGID_111_"  style="overflow:visible;"/>
			</clipPath>
			<g id="path4203" class="st57">
				
					<rect x="191.4" y="45.7" transform="matrix(0.7863 -0.6178 0.6178 0.7863 6.6344 130.3839)" class="st18" width="0.8" height="19.7"/>
			</g>
		</g>
	</g>
	<g id="layer3">
		<g id="rect2887">
			<path class="st18" d="M113.8,83v136.3h16.1v-41.5h33.7c11.7,0,21.1-9.4,21.1-21.1v-52.5c0-11.7-9.4-21.2-21.1-21.2H113.8z
				 M129.8,98.5h4.7h14.6h14.8c2.6,0,4.7,2.1,4.7,4.7v53.9c0,2.6-2.1,4.7-4.7,4.7h-14.8h-14.6h-4.7v-4.7v-53.9V98.5z"/>
		</g>
	</g>
	<g id="layer5">
		<g id="path3918">
			<path class="st18" d="M174.5,196.6c-7,0-12.6,5.6-12.6,12.6s5.6,12.6,12.6,12.6s12.6-5.6,12.6-12.6S181.4,196.6,174.5,196.6z
				 M170.7,203.5l9.7,5.8l-9.7,5.5V203.5z"/>
		</g>
		<g id="path3918-1">
			<path class="st18" d="M202.2,196.6c-7,0-12.6,5.6-12.6,12.6s5.6,12.6,12.6,12.6s12.6-5.6,12.6-12.6S209.1,196.6,202.2,196.6z
				 M197.9,204.9h8.9v8.9h-8.9V204.9z"/>
		</g>
	</g>
</g>
</svg>
