<?xml version="1.0" encoding="utf-8"?>
<!-- Generator: Adobe Illustrator 21.1.0, SVG Export Plug-In . SVG Version: 6.00 Build 0)  -->
<svg version="1.1" id="Layer_1" xmlns="http://www.w3.org/2000/svg" xmlns:xlink="http://www.w3.org/1999/xlink" x="0px" y="0px"
	 viewBox="0 0 300 300" style="enable-background:new 0 0 300 300;" xml:space="preserve">
<style type="text/css">
	.st0{fill:url(#SVGID_1_);}
	.st1{fill:url(#SVGID_2_);}
	.st2{fill:url(#SVGID_3_);}
	.st3{fill:url(#SVGID_4_);}
	.st4{fill:url(#SVGID_5_);}
	.st5{fill:url(#SVGID_6_);}
	.st6{fill:url(#SVGID_7_);}
	.st7{fill:url(#SVGID_8_);}
	.st8{fill:#FFFFFF;}
	.st9{fill:url(#SVGID_9_);}
	.st10{fill:url(#SVGID_10_);}
	.st11{fill:url(#SVGID_11_);}
	.st12{fill:url(#SVGID_12_);}
	.st13{fill:#9E1209;}
	.st14{fill:url(#SVGID_13_);}
	.st15{fill:url(#SVGID_14_);}
	.st16{fill:url(#SVGID_15_);}
	.st17{fill:url(#SVGID_16_);}
</style>
<g>
	
		<linearGradient id="SVGID_1_" gradientUnits="userSpaceOnUse" x1="-348.9732" y1="250.1547" x2="-348.9904" y2="250.1852" gradientTransform="matrix(1981.5812 0 0 -1980.0968 691730.0625 495576.0312)">
		<stop  offset="0" style="stop-color:#FB7655"/>
		<stop  offset="0" style="stop-color:#FB7655"/>
		<stop  offset="0.41" style="stop-color:#E42B1E"/>
		<stop  offset="0.99" style="stop-color:#990000"/>
		<stop  offset="1" style="stop-color:#990000"/>
	</linearGradient>
	<path class="st0" d="M194.6,175.9l-92.6,55l119.9-8.1l9.2-120.9L194.6,175.9L194.6,175.9z"/>
	
		<linearGradient id="SVGID_2_" gradientUnits="userSpaceOnUse" x1="-351.0103" y1="251.0257" x2="-351.0851" y2="251.0528" gradientTransform="matrix(588.89 0 0 -1091.4792 206934.8594 274184.1562)">
		<stop  offset="0" style="stop-color:#871101"/>
		<stop  offset="0" style="stop-color:#871101"/>
		<stop  offset="0.99" style="stop-color:#911209"/>
		<stop  offset="1" style="stop-color:#911209"/>
	</linearGradient>
	<path class="st1" d="M222,222.6l-10.3-71.1l-28.1,37.1L222,222.6L222,222.6z"/>
	
		<linearGradient id="SVGID_3_" gradientUnits="userSpaceOnUse" x1="-348.9843" y1="259.6302" x2="-349.0083" y2="259.768" gradientTransform="matrix(1838.8894 0 0 -214.6868 641936.8125 55986.5508)">
		<stop  offset="0" style="stop-color:#871101"/>
		<stop  offset="0" style="stop-color:#871101"/>
		<stop  offset="0.99" style="stop-color:#911209"/>
		<stop  offset="1" style="stop-color:#911209"/>
	</linearGradient>
	<path class="st2" d="M222.2,222.6l-75.5-5.9l-44.3,14L222.2,222.6L222.2,222.6z"/>
	
		<linearGradient id="SVGID_4_" gradientUnits="userSpaceOnUse" x1="-348.5572" y1="251.4852" x2="-348.5464" y2="251.4384" gradientTransform="matrix(636.8931 0 0 -948.1528 222094.2656 238619.8438)">
		<stop  offset="0" style="stop-color:#FFFFFF"/>
		<stop  offset="0" style="stop-color:#FFFFFF"/>
		<stop  offset="0.23" style="stop-color:#E57252"/>
		<stop  offset="0.46" style="stop-color:#DE3B20"/>
		<stop  offset="0.99" style="stop-color:#A60003"/>
		<stop  offset="1" style="stop-color:#A60003"/>
	</linearGradient>
	<path class="st3" d="M102.5,230.7l18.9-61.8l-41.5,8.9L102.5,230.7L102.5,230.7z"/>
	
		<linearGradient id="SVGID_5_" gradientUnits="userSpaceOnUse" x1="-349.2296" y1="250.6818" x2="-349.2271" y2="250.6384" gradientTransform="matrix(1028.4187 0 0 -1043.1245 359301.8438 261624.2656)">
		<stop  offset="0" style="stop-color:#FFFFFF"/>
		<stop  offset="0" style="stop-color:#FFFFFF"/>
		<stop  offset="0.23" style="stop-color:#E4714E"/>
		<stop  offset="0.56" style="stop-color:#BE1A0D"/>
		<stop  offset="0.99" style="stop-color:#A80D00"/>
		<stop  offset="1" style="stop-color:#A80D00"/>
	</linearGradient>
	<path class="st4" d="M183.7,188.8l-17.4-68l-49.7,46.5L183.7,188.8L183.7,188.8z"/>
	
		<linearGradient id="SVGID_6_" gradientUnits="userSpaceOnUse" x1="-350.0522" y1="250.2767" x2="-350.044" y2="250.2266" gradientTransform="matrix(921.017 0 0 -648.5522 322593.3125 162407.5)">
		<stop  offset="0" style="stop-color:#FFFFFF"/>
		<stop  offset="0" style="stop-color:#FFFFFF"/>
		<stop  offset="0.18" style="stop-color:#E46342"/>
		<stop  offset="0.4" style="stop-color:#C82410"/>
		<stop  offset="0.99" style="stop-color:#A80D00"/>
		<stop  offset="1" style="stop-color:#A80D00"/>
	</linearGradient>
	<path class="st5" d="M227.1,121.8l-46.9-38.3l-13.1,42.3L227.1,121.8L227.1,121.8z"/>
	
		<linearGradient id="SVGID_7_" gradientUnits="userSpaceOnUse" x1="-350.281" y1="249.9071" x2="-350.234" y2="249.9755" gradientTransform="matrix(691.0189 0 0 -237.2921 242217.0938 59379.5586)">
		<stop  offset="0" style="stop-color:#FFFFFF"/>
		<stop  offset="0" style="stop-color:#FFFFFF"/>
		<stop  offset="0.54" style="stop-color:#C81F11"/>
		<stop  offset="0.99" style="stop-color:#BF0905"/>
		<stop  offset="1" style="stop-color:#BF0905"/>
	</linearGradient>
	<path class="st6" d="M205.2,69.8L177.6,85l-17.4-15.5L205.2,69.8L205.2,69.8z"/>
	
		<linearGradient id="SVGID_8_" gradientUnits="userSpaceOnUse" x1="-346.6275" y1="251.6415" x2="-346.6124" y2="251.6038" gradientTransform="matrix(177.4931 0 0 -709.3571 61596.0781 178665.7812)">
		<stop  offset="0" style="stop-color:#FFFFFF"/>
		<stop  offset="0" style="stop-color:#FFFFFF"/>
		<stop  offset="0.31" style="stop-color:#DE4024"/>
		<stop  offset="0.99" style="stop-color:#BF190B"/>
		<stop  offset="1" style="stop-color:#BF190B"/>
	</linearGradient>
	<path class="st7" d="M68.9,198.5l11.6-21.1l-9.4-25.1L68.9,198.5z"/>
	<path class="st8" d="M70.5,151.5l9.4,26.7l40.9-9.2l46.7-43.4l13.2-41.9l-20.8-14.7l-35.3,13.2c-11.1,10.3-32.7,30.8-33.5,31.2
		C90.4,113.9,77,139.4,70.5,151.5L70.5,151.5z"/>
	
		<linearGradient id="SVGID_9_" gradientUnits="userSpaceOnUse" x1="-348.795" y1="249.9458" x2="-348.7136" y2="250.0296" gradientTransform="matrix(1544.4149 0 0 -1542.2134 538737.875 385665.8438)">
		<stop  offset="0" style="stop-color:#BD0012"/>
		<stop  offset="0" style="stop-color:#BD0012"/>
		<stop  offset="7.000000e-02" style="stop-color:#FFFFFF"/>
		<stop  offset="0.17" style="stop-color:#FFFFFF"/>
		<stop  offset="0.27" style="stop-color:#C82F1C"/>
		<stop  offset="0.33" style="stop-color:#820C01"/>
		<stop  offset="0.46" style="stop-color:#A31601"/>
		<stop  offset="0.72" style="stop-color:#B31301"/>
		<stop  offset="0.99" style="stop-color:#E82609"/>
		<stop  offset="1" style="stop-color:#E82609"/>
	</linearGradient>
	<path class="st9" d="M103.6,103.6c24.1-23.9,55.1-38,67.1-26c11.9,12-0.7,41.2-24.8,65.1c-24.1,23.9-54.8,38.8-66.7,26.7
		C67.2,157.4,79.5,127.4,103.6,103.6L103.6,103.6z"/>
	
		<linearGradient id="SVGID_10_" gradientUnits="userSpaceOnUse" x1="-349.0129" y1="251.4394" x2="-349.0434" y2="251.4492" gradientTransform="matrix(1240.8304 0 0 -951.1702 433215.8438 239370.7969)">
		<stop  offset="0" style="stop-color:#8C0C01"/>
		<stop  offset="0" style="stop-color:#8C0C01"/>
		<stop  offset="0.54" style="stop-color:#990C00"/>
		<stop  offset="0.99" style="stop-color:#A80D0E"/>
		<stop  offset="1" style="stop-color:#A80D0E"/>
	</linearGradient>
	<path class="st10" d="M102.5,230.7l18.7-62l62.1,20C160.9,209.8,135.9,227.6,102.5,230.7L102.5,230.7z"/>
	
		<linearGradient id="SVGID_11_" gradientUnits="userSpaceOnUse" x1="-350.0353" y1="250.6694" x2="-350.0719" y2="250.6986" gradientTransform="matrix(917.9897 0 0 -1031.1821 321543.8438 258649.5)">
		<stop  offset="0" style="stop-color:#7E110B"/>
		<stop  offset="0" style="stop-color:#7E110B"/>
		<stop  offset="0.99" style="stop-color:#9E0C00"/>
		<stop  offset="1" style="stop-color:#9E0C00"/>
	</linearGradient>
	<path class="st11" d="M167.6,125.5l16,63.2c18.8-19.7,35.6-41,43.9-67.2L167.6,125.5L167.6,125.5z"/>
	
		<linearGradient id="SVGID_12_" gradientUnits="userSpaceOnUse" x1="-350.4557" y1="249.9397" x2="-350.4773" y2="249.9621" gradientTransform="matrix(778.269 0 0 -798.665 272976.2812 199726.4375)">
		<stop  offset="0" style="stop-color:#79130D"/>
		<stop  offset="0" style="stop-color:#79130D"/>
		<stop  offset="0.99" style="stop-color:#9E120B"/>
		<stop  offset="1" style="stop-color:#9E120B"/>
	</linearGradient>
	<path class="st12" d="M227.2,121.8c6.4-19.3,7.9-46.9-22.2-52l-24.7,13.6L227.2,121.8z"/>
	<path class="st13" d="M68.9,198.3c0.9,31.8,23.8,32.3,33.6,32.6l-22.6-52.7L68.9,198.3z"/>
	
		<radialGradient id="SVGID_13_" cx="-350.078" cy="251.5198" r="4.533392e-02" gradientTransform="matrix(909.2308 0 0 -475.1044 318488.3438 119632.3125)" gradientUnits="userSpaceOnUse">
		<stop  offset="0" style="stop-color:#A80D00"/>
		<stop  offset="0" style="stop-color:#A80D00"/>
		<stop  offset="0.99" style="stop-color:#7E0E08"/>
		<stop  offset="1" style="stop-color:#7E0E08"/>
	</radialGradient>
	<path class="st14" d="M167.7,125.6c14.4,8.9,43.5,26.7,44.1,27c0.9,0.5,12.5-19.6,15.2-30.9L167.7,125.6z"/>
	
		<radialGradient id="SVGID_14_" cx="-349.3398" cy="251.8765" r="5.759252e-02" gradientTransform="matrix(951.4143 0 0 -740.6335 332496.4062 186736.6094)" gradientUnits="userSpaceOnUse">
		<stop  offset="0" style="stop-color:#A30C00"/>
		<stop  offset="0" style="stop-color:#A30C00"/>
		<stop  offset="0.99" style="stop-color:#800E08"/>
		<stop  offset="1" style="stop-color:#800E08"/>
	</radialGradient>
	<path class="st15" d="M121.2,168.7l25,48.3c14.8-8,26.4-17.8,37-28.3L121.2,168.7L121.2,168.7z"/>
	
		<linearGradient id="SVGID_15_" gradientUnits="userSpaceOnUse" x1="-348.1671" y1="251.8834" x2="-348.2019" y2="251.9418" gradientTransform="matrix(391.9162 0 0 -792.3398 136543.0781 199807.875)">
		<stop  offset="0" style="stop-color:#8B2114"/>
		<stop  offset="0" style="stop-color:#8B2114"/>
		<stop  offset="0.43" style="stop-color:#9E100A"/>
		<stop  offset="0.99" style="stop-color:#B3100C"/>
		<stop  offset="1" style="stop-color:#B3100C"/>
	</linearGradient>
	<path class="st16" d="M79.8,178.2l-3.5,42.2c6.7,9.1,15.9,9.9,25.5,9.2C94.9,212.2,80.9,177.5,79.8,178.2z"/>
	
		<linearGradient id="SVGID_16_" gradientUnits="userSpaceOnUse" x1="-350.5245" y1="249.9451" x2="-350.4844" y2="249.9027" gradientTransform="matrix(762.6236 0 0 -318.554 267513.75 79698.1797)">
		<stop  offset="0" style="stop-color:#B31000"/>
		<stop  offset="0" style="stop-color:#B31000"/>
		<stop  offset="0.44" style="stop-color:#910F08"/>
		<stop  offset="0.99" style="stop-color:#791C12"/>
		<stop  offset="1" style="stop-color:#791C12"/>
	</linearGradient>
	<path class="st17" d="M180.2,83.6l49.7,7C227.2,79.3,219,72,205.2,69.8L180.2,83.6L180.2,83.6z"/>
</g>
</svg>
