<?xml version="1.0" encoding="utf-8"?>
<!-- Generator: Adobe Illustrator 21.1.0, SVG Export Plug-In . SVG Version: 6.00 Build 0)  -->
<svg version="1.1" id="Layer_1" xmlns="http://www.w3.org/2000/svg" xmlns:xlink="http://www.w3.org/1999/xlink" x="0px" y="0px"
	 viewBox="0 0 300 300" style="enable-background:new 0 0 300 300;" xml:space="preserve">
<style type="text/css">
	.st0{fill:url(#SVGID_1_);}
	.st1{fill:url(#SVGID_2_);}
	.st2{fill:#FFFFFF;}
</style>
<g>
	
		<linearGradient id="SVGID_1_" gradientUnits="userSpaceOnUse" x1="-2095.1584" y1="-996.7015" x2="-2091.4783" y2="-975.829" gradientTransform="matrix(-9.7656 0 0 9.7656 -20292.457 9781.4844)">
		<stop  offset="0" style="stop-color:#FAAE42"/>
		<stop  offset="1" style="stop-color:#EF3E31"/>
	</linearGradient>
	<path class="st0" d="M97.1,54.9h105.4c5.1,0,10.1,0.8,14.9,2.5c7,2.5,13.3,7,18.1,12.8c4.8,5.8,8,12.9,9.1,20.4
		c0.4,2.8,0.5,5.5,0.5,8.3v102.8c0,3.3-0.1,6.6-0.8,9.8c-1.5,7.4-5,14.3-10,19.8c-5,5.6-11.5,9.7-18.6,12c-4.3,1.3-8.8,1.9-13.3,1.9
		c-2,0-105.6,0-107.2-0.1c-7.6-0.4-15.1-2.8-21.4-7.1c-6.2-4.2-11.2-10-14.5-16.6c-2.8-5.7-4.2-12.1-4.2-18.5V97.2
		c-0.1-6.3,1.2-12.6,3.9-18.2c3.2-6.7,8.2-12.6,14.3-16.7c6.3-4.3,13.8-6.8,21.3-7.2C95.5,54.9,96.3,54.9,97.1,54.9z"/>
	
		<linearGradient id="SVGID_2_" gradientUnits="userSpaceOnUse" x1="-297.7064" y1="249.1867" x2="-300.4016" y2="233.901" gradientTransform="matrix(9.7656 0 0 -9.7656 3059.2031 2491.4062)">
		<stop  offset="0" style="stop-color:#E39F3A"/>
		<stop  offset="1" style="stop-color:#D33929"/>
	</linearGradient>
	<path class="st1" d="M215.4,210.5c-0.7-1-1.4-2.1-2.2-3c-1.9-2.2-4-4.2-6.4-5.8c-3-2-6.5-3.3-10-3.4c-2.5-0.1-5.1,0.3-7.4,1.2
		c-2.4,0.8-4.7,2-6.9,3.2c-2.6,1.3-5.2,2.7-8,3.8c-3.3,1.3-6.7,2.4-10.2,3.1c-4.4,0.8-8.8,1.1-13.2,1c-8-0.1-15.9-1.3-23.5-3.6
		c-6.7-2-13.1-4.8-19.1-8.3c-5.3-3-10.2-6.5-14.8-10.5c-3.8-3.3-7.3-6.8-10.6-10.5c-2.2-2.6-4.4-5.4-6.4-8.2
		c-0.8-1.1-1.6-2.3-2.2-3.5l-19.6-21.2V97c0-23.3,18.8-42.1,42.1-42.1h37.5l27.8,28.2c62.7,42.7,42.4,89.7,42.4,89.7
		S222.5,192.9,215.4,210.5z"/>
	<path class="st2" d="M162.4,83.1c62.7,42.7,42.4,89.7,42.4,89.7s17.8,20.1,10.6,37.8c0,0-7.4-12.3-19.7-12.3
		c-11.9,0-18.9,12.3-42.8,12.3c-53.3,0-78.5-44.5-78.5-44.5c48,31.6,80.8,9.2,80.8,9.2c-21.6-12.6-67.6-72.6-67.6-72.6
		c40.1,34.1,57.4,43.1,57.4,43.1c-10.3-8.5-39.3-50.3-39.3-50.3c23.2,23.5,69.3,56.3,69.3,56.3C188,115.4,162.4,83.1,162.4,83.1z"/>
</g>
</svg>
