<svg id="NVIDIA_Logo" data-name="NVIDIA Logo" xmlns="http://www.w3.org/2000/svg" viewBox="0 0 714.81 808.85"><defs><style>.cls-1{fill:#76b900;}</style></defs><title>NVIDIA-logoArtboard 3</title><path id="Reg" d="M669.85,524v-2.66h1.71c.93,0,2.2.07,2.2,1.21S673.11,524,672,524h-2.16m0,1.87H671l2.64,4.64h2.9l-2.92-4.83a2.62,2.62,0,0,0,2.76-2.87c0-2.53-1.75-3.34-4.7-3.34H667.4v11h2.45V525.9m12.42-.87c0-6.49-5-10.25-10.66-10.25s-10.69,3.76-10.69,10.25,5,10.26,10.69,10.26,10.66-3.78,10.66-10.26m-3.08,0a7.57,7.57,0,0,1-7.58,7.9v0A7.88,7.88,0,1,1,679.2,525Z"/><path id="NVIDIA" d="M291.17,415.25V531.67h32.88V415.25Zm-258.65-.16V531.67H65.7V443.15H91.4c8.51,0,14.58,2.12,18.68,6.5,5.2,5.54,7.32,14.48,7.32,30.83v51.19h32.14V467.26c0-46-29.3-52.17-58-52.17Zm311.59.16V531.67h53.33c28.41,0,37.69-4.73,47.72-15.32,7.09-7.44,11.67-23.76,11.67-41.61,0-16.36-3.88-31-10.64-40.05-12.18-16.26-29.73-19.43-55.93-19.43Zm32.61,25.35h14.14c20.51,0,33.77,9.21,33.77,33.11s-13.26,33.11-33.77,33.11H376.73Zm-133-25.35-27.44,92.27L190,415.26H154.54l37.55,116.42h47.39l37.85-116.42ZM472.13,531.67H505V415.26H472.12ZM564.3,415.3,518.39,531.63h32.42l7.26-20.56H612.4l6.88,20.56h35.2L608.22,415.29Zm21.34,21.22L605.56,491H565.09Z"/><path id="Eye_Mark" data-name="Eye Mark" class="cls-1" d="M247.71,142.55v-28c2.71-.19,5.46-.34,8.25-.43,76.49-2.4,126.68,65.73,126.68,65.73s-54.2,75.28-112.32,75.28a70.44,70.44,0,0,1-22.61-3.62V166.74c29.78,3.6,35.77,16.75,53.67,46.59l39.82-33.57s-29.07-38.12-78.06-38.12a144.14,144.14,0,0,0-15.43.91m0-92.39V91.94c2.75-.22,5.49-.39,8.25-.49,106.38-3.58,175.68,87.24,175.68,87.24s-79.6,96.8-162.53,96.8a122.29,122.29,0,0,1-21.4-1.89v25.82a140.89,140.89,0,0,0,17.82,1.15c77.18,0,133-39.41,187-86.06,9,7.17,45.64,24.63,53.18,32.28-51.39,43-171.14,77.69-239,77.69-6.54,0-12.83-.39-19-1v36.29H541V50.16Zm0,201.39v22c-71.38-12.73-91.19-86.92-91.19-86.92s34.27-38,91.19-44.12v24.19h-.11c-29.87-3.59-53.21,24.32-53.21,24.32s13.08,47,53.32,60.5M120.93,183.46s42.3-62.42,126.78-68.88V91.94c-93.56,7.51-174.58,86.75-174.58,86.75S119,311.35,247.71,323.5V299.42C153.27,287.54,120.93,183.46,120.93,183.46Z"/><path d="M206.09,720q-4.3,18.72-16.38,28.77-12.44,10-29.45,10-15.38-.37-25.67-7.76-10.47-7.11-15.2-16.44-1.43-3-2.59-5.82a38.84,38.84,0,0,1-1.79-7.21q-1.34-8.13-1.34-31.22,0-23.46,1.34-31.41A38,38,0,0,1,119.39,646q4.74-9.33,15.21-16.63,10.29-7.39,25.68-7.57,18.88.19,30.78,11.53a51.2,51.2,0,0,1,15,28.32h-21a29.82,29.82,0,0,0-8.78-13.88,25.37,25.37,0,0,0-16.13-5.65,26.68,26.68,0,0,0-12,2.87,25.17,25.17,0,0,0-8.24,6.94,22.67,22.67,0,0,0-5.11,11.2q-1.43,7.22-1.43,27.12t1.43,26.94A22.79,22.79,0,0,0,140,728.56a23.32,23.32,0,0,0,8.25,6.76,22.66,22.66,0,0,0,12,3.05q16.68,0,24.92-18.42Z"/><path d="M220.91,622.9h19.75v86.91q.18,13.78,7.71,21,7.35,7.58,18.91,7.58t19.09-7.58q7.35-7.21,7.53-21V622.9h19.75v89q-.36,21.25-13.34,33.72-13.07,12.84-33,13-19.6-.19-32.76-13-13.43-12.45-13.6-33.68Z"/><path d="M342.47,622.9h45.64q26.49.19,39.74,22.72a41.36,41.36,0,0,1,6,15.89q1,8.31,1,28.73,0,21.71-1.52,30.3a34.79,34.79,0,0,1-2.15,7.76,72.38,72.38,0,0,1-3.67,6.93,46.07,46.07,0,0,1-15.93,15.7q-10.11,6.65-24.79,6.65h-44.3Zm19.75,115.48h23.65q16.66,0,24.19-11.76a22.85,22.85,0,0,0,4.21-11q.81-6.57.81-24.62,0-17.59-.81-25.18a23.59,23.59,0,0,0-5.11-12.31q-8.24-11.76-23.29-11.39H362.22Z"/><path d="M525.07,727.46H475.59l-10,30.12H444.64L492.05,622.9h16.55L556,757.58H535.18Zm-5.64-18.09-18.88-58.92h-.36l-18.88,58.92Z"/><path d="M531.64,636.54a14.58,14.58,0,0,1,4.22-10.47,13.55,13.55,0,0,1,10.06-4.28,13.77,13.77,0,0,1,10.14,4.28,14.72,14.72,0,0,1,4.14,10.46,14.44,14.44,0,0,1-4.14,10.39,13.64,13.64,0,0,1-10.14,4.36,13.43,13.43,0,0,1-10.06-4.35A14.28,14.28,0,0,1,531.64,636.54Zm3.06,0a11.63,11.63,0,0,0,3.22,8.44,10.5,10.5,0,0,0,8,3.39A10.66,10.66,0,0,0,554,645a13,13,0,0,0,0-17,10.79,10.79,0,0,0-8.07-3.31,10.62,10.62,0,0,0-8,3.31A11.76,11.76,0,0,0,534.7,636.54Zm5.83-9h6.3q5.72,0,5.72,5.13a5.1,5.1,0,0,1-1.21,3.68,5.19,5.19,0,0,1-3,1.33l4.77,7.08h-3.31l-4.79-7h-1.62v7h-2.82Zm2.82,7.56h2a9.71,9.71,0,0,0,3.09-.36,2,2,0,0,0,1.31-2.08,2,2,0,0,0-1.16-2,7,7,0,0,0-2.61-.44h-2.61Z"/></svg>