<?xml version="1.0" encoding="utf-8"?>
<!-- Generator: Adobe Illustrator 21.1.0, SVG Export Plug-In . SVG Version: 6.00 Build 0)  -->
<svg version="1.1" id="Layer_1" xmlns="http://www.w3.org/2000/svg" xmlns:xlink="http://www.w3.org/1999/xlink" x="0px" y="0px"
	 viewBox="0 0 300 300" style="enable-background:new 0 0 300 300;" xml:space="preserve">
<style type="text/css">
	.st0{fill:url(#SVGID_1_);}
</style>
<g>
	<linearGradient id="SVGID_1_" gradientUnits="userSpaceOnUse" x1="51.2295" y1="150" x2="248.7705" y2="150">
		<stop  offset="0" style="stop-color:#0072FF"/>
		<stop  offset="1" style="stop-color:#00C6FF"/>
	</linearGradient>
	<path class="st0" d="M76.7,216.7c-17-17.6-25.5-39.9-25.5-67c0-27.1,8.5-49.3,25.5-66.7C93.6,65.7,118.1,57,150,57
		c31.5,0,55.8,8.8,73,26.4c17.2,17.6,25.8,39.7,25.8,66.4c0,27.1-8.6,49.4-25.8,67c-17.2,17.6-41.5,26.4-73,26.4
		C118.1,243,93.6,234.2,76.7,216.7z M177.3,181.8c6.5-7.7,9.7-18.4,9.7-32.1c0-14.1-3.1-24.8-9.4-32.1c-6.3-7.3-15.5-10.9-27.6-10.9
		c-11.7,0-20.6,3.6-26.7,10.9s-9.1,18-9.1,32.1c0,13.7,3.1,24.4,9.4,32.1c6.3,7.7,15,11.5,26.4,11.5
		C161.7,193.3,170.8,189.5,177.3,181.8z"/>
</g>
</svg>
