<?xml version="1.0" encoding="utf-8"?>
<!-- Generator: Adobe Illustrator 22.0.1, SVG Export Plug-In . SVG Version: 6.00 Build 0)  -->
<svg version="1.1" id="Layer_1" xmlns="http://www.w3.org/2000/svg" xmlns:xlink="http://www.w3.org/1999/xlink" x="0px" y="0px"
	 viewBox="0 0 300 300" style="enable-background:new 0 0 300 300;" xml:space="preserve">
<path d="M150,50.9c-55.6,0-100.6,45-100.6,100.6c0,47.3,32.5,86.6,76.2,97.6c-0.5-1.3-0.8-3-0.8-4.8v-17.1h-12.6
	c-6.8,0-13.1-3-15.9-8.6c-3.3-6-3.8-15.3-12.1-21.1c-2.5-2-0.5-4,2.3-3.8c5.3,1.5,9.6,5,13.6,10.3c4,5.3,5.8,6.5,13.3,6.5
	c3.5,0,9.1-0.2,14.1-1c2.8-7,7.5-13.3,13.3-16.4c-33.7-4-49.8-20.6-49.8-43.3c0-9.8,4.3-19.1,11.3-27.2c-2.3-7.8-5.3-23.9,1-30.2
	c15.1,0,24.2,9.8,26.4,12.3c7.5-2.5,15.9-4,24.4-4c8.8,0,16.9,1.5,24.4,4c2.3-2.5,11.3-12.3,26.4-12.3c6,6,3.3,22.4,0.8,30.2
	c7,7.8,11.1,17.4,11.1,27.2c0,22.6-15.9,39.3-49.3,42.8c9.3,4.8,15.9,18.4,15.9,28.4v22.9c0,0.8-0.2,1.5-0.2,2.3
	c39.2-13.6,67.4-50.8,67.4-94.9C250.6,95.9,205.6,50.9,150,50.9L150,50.9z"/>
</svg>
