<?xml version="1.0" encoding="utf-8"?>
<!-- Generator: Adobe Illustrator 21.1.0, SVG Export Plug-In . SVG Version: 6.00 Build 0)  -->
<svg version="1.1" id="Layer_1" xmlns="http://www.w3.org/2000/svg" xmlns:xlink="http://www.w3.org/1999/xlink" x="0px" y="0px"
	 viewBox="0 0 300 300" style="enable-background:new 0 0 300 300;" xml:space="preserve">
<style type="text/css">
	.st0{fill:#F6D2A2;}
	.st1{fill:#69D7E2;}
	.st2{fill:#FFFFFF;}
	.st3{fill:#231F20;}
</style>
<g>
	<path class="st0" d="M80.5,158c0.3,5.7,6,3.1,8.6,1.3c2.5-1.7,3.2-0.3,3.4-3.6c0.2-2.2,0.4-4.4,0.3-6.6c-3.7-0.3-7.8,0.6-10.8,2.8
		C80.3,153,77.4,156.6,80.5,158 M195,228.7c4.4,2.7,12.5,11,5.9,15c-6.4,5.8-9.9-6.4-15.5-8.1C187.7,232.3,190.7,229.3,195,228.7z
		 M116.1,238c-5.2,0.8-8.1,5.5-12.4,7.9c-4.1,2.4-5.6-0.8-6-1.5c-0.6-0.3-0.6,0.3-1.6-0.7c-3.8-6,3.9-10.3,7.9-13.3
		C109.6,229.3,113.2,234.1,116.1,238L116.1,238z M219.5,157.3c-0.3,5.7-6,3.1-8.6,1.3c-2.5-1.7-3.2-0.3-3.4-3.6
		c-0.2-2.2-0.4-4.4-0.3-6.6c3.7-0.3,7.8,0.6,10.8,2.8C219.6,152.2,222.5,155.9,219.5,157.3"/>
	<path class="st1" d="M204.2,87.3c19.9-7,4.4-34.3-13-22.3c-11.4-9.8-27.1-11.5-43.5-11.5c-16.1,1.3-31.5,4.2-42.2,13.6
		C88.3,55.9,72.3,82.7,92.6,89.4c-5.7,22.1,0.8,44.6-0.1,67.1c-0.8,20.2-6.1,47.2,5.1,65.4c9.5,15.5,30.1,21,47,21.6
		c21.6,0.8,47.7-4.5,58.2-25.4c10-19.9,7.3-44.7,6-66.2C207.5,130.2,209.9,108.2,204.2,87.3L204.2,87.3z"/>
	<path d="M221,153.9c-0.6-1.2-1.6-2.5-2.6-3.2c-2.6-1.8-5.9-2.8-9.3-3c-0.1-3.5-0.2-7.3-0.2-12v-4.4c-0.1-13.7-0.2-19.7-1-27.3
		c-0.6-5.9-1.6-11.4-2.9-16.5c4.5-1.7,7.5-4.6,8.6-8.3c1.1-3.4,0.6-7.3-1.3-10.7c-2-3.3-5.1-5.9-8.7-6.9c-3.9-1.1-8.1-0.3-12.2,2.5
		c-3.6-3.1-7.8-5.4-12.5-7.2c-8.3-3.1-18-4.2-31.1-4.2v0.6l-0.1-0.6c-14,1.1-24.4,3.3-33,7.5c-3.5,1.7-6.5,3.7-9.2,6
		c-4.1-2.6-8.4-3.2-12.4-2c-3.7,1.1-6.9,3.7-8.8,7.1c-1.9,3.4-2.3,7.3-1.1,10.7c1.3,3.3,4.2,6,8.6,7.6c-1.4,5.6-2.1,11.6-2.2,18.2
		c-0.1,6.4,0.2,11.5,1.2,23.1c0.7,8.6,1,12.6,1.1,17.4c-3.8-0.2-7.6,0.8-10.4,2.9c-1,0.7-2.1,2-2.6,3.2c-0.7,1.6-0.4,3,1,3.8
		c0.2,2.7,1.7,3.9,4,3.7c1.7-0.2,3.7-1.1,5.4-2.3c0.4-0.3,0.8-0.5,1.2-0.7c0.2-0.1,0.3-0.1,0.4-0.2c0,0,0.3-0.1,0.4-0.2
		c0.2-0.1,0.3-0.1,0.4-0.2c-0.1,2.6-0.3,5.4-0.8,11.6c-0.6,7-0.8,10.9-0.9,15.2c-0.5,16,1.4,27.6,7.1,36.8c1.8,2.9,4,5.5,6.5,7.8
		c-0.5,0.3-2.6,1.9-3.3,2.4c-2.3,1.8-4,3.3-4.9,5c-1.2,2.2-1.2,4.4,0.2,6.6l0.1,0.1l0.1,0.1c0.6,0.6,0.9,0.8,1.4,0.8h0.2
		c0.1,0.1,0.1,0.2,0.2,0.3c0.2,0.3,0.3,0.5,0.5,0.7c1.4,1.6,3.3,2,6,0.4c1.4-0.7,2.4-1.6,4.5-3.3l0.1-0.1c3.4-2.9,5.1-4,7.6-4.4
		l0.9-0.2c0.3,0.2,0.7,0.3,1.1,0.4c7.9,3.2,17.1,4.9,26.4,5.2c12,0.4,23.6-1.1,33.5-4.6c2.6-0.9,5.1-2.1,7.4-3.3
		c1.5,0.6,2.7,1.7,5,4.5c0.1,0.1,0.1,0.1,0.2,0.2c0.1,0.1,0.1,0.2,0.2,0.2c0.1,0.2,0.3,0.3,0.4,0.4c1.8,2.2,3.1,3.2,4.5,3.8
		c1.8,0.8,3.6,0.4,5.5-1.3c3.2-2,3.5-5.1,1.3-8.7c-1.5-2.5-4.1-5.1-6.6-6.8c2.9-2.8,5.4-6.2,7.4-10.1c5.4-10.7,7.4-23.2,7.3-39.3
		c-0.1-5.7-0.3-10.7-0.9-20.1v-0.3c0.3,0.1,0.6,0.3,0.8,0.5c1.7,1.2,3.7,2.1,5.4,2.3c2.3,0.2,3.8-1,4-3.7
		C221.4,156.9,221.7,155.5,221,153.9L221,153.9z M203.2,62.9c3.3,0.9,6.2,3.2,8,6.4c1.8,3.1,2.3,6.6,1.3,9.8
		c-1.1,3.3-3.7,5.9-7.9,7.5c-0.8-3-1.8-5.9-3-8.8c1.6-1.4,2.4-3.1,1.1-5.6c-1.3-2.5-3.5-2.7-5.8-2c-1.5-1.9-3.1-3.6-4.7-5.1
		C195.9,62.7,199.7,62,203.2,62.9L203.2,62.9z M84.3,81.8c-1.2-3-0.8-6.6,1-9.7c1.8-3.1,4.7-5.6,8.1-6.6c3.6-1.1,7.4-0.6,11.2,1.7
		c-2.2,2-4.1,4.2-5.8,6.6C96,72.3,93,72,91.4,75.1c-1.7,3.3,0.3,5.4,3.1,6.9c-0.4,0.9-0.8,2-1.1,3c-0.4,1.2-0.8,2.5-1.1,3.8
		C88.2,87.2,85.5,84.8,84.3,81.8L84.3,81.8z M91.1,157.8c-0.1,0-0.4,0.1-0.4,0.2c-0.2,0.1-0.3,0.1-0.5,0.2c-0.4,0.2-0.9,0.4-1.3,0.8
		c-1.6,1.1-3.5,2-4.9,2.1c-1.7,0.2-2.6-0.6-2.8-2.6c1.2-0.4,1.7-0.7,2.1-1.3l-0.9-0.7c-0.3,0.4-0.7,0.6-1.7,0.9
		c-0.1,0-0.1,0-0.1,0.1c-0.9-0.5-1.1-1.3-0.6-2.4c0.4-1,1.5-2.2,2.3-2.8c2.7-2,6.2-2.9,9.8-2.7c0,1.4,0.1,2.8,0,4.1
		c0,0.2,0,0.3-0.1,0.4c-0.1,0.8-0.1,1.1-0.1,1.5C91.8,157.3,91.7,157.5,91.1,157.8L91.1,157.8z M107.9,242l-0.1,0.1
		c-2.1,1.8-3.1,2.5-4.4,3.2c-2.1,1.3-3.6,1-4.6-0.2c-0.2-0.2-0.3-0.4-0.4-0.6c-0.1-0.1-0.1-0.2-0.2-0.2v-0.1c0.1-1,0.5-1.7,1.5-3.3
		c0.1-0.1,0.1-0.1,0.1-0.1c0.6-0.9,0.9-1.4,1.2-2l-1-0.4c-0.2,0.5-0.5,0.9-1.1,1.8c-0.1,0.1-0.1,0.1-0.1,0.1c-1,1.5-1.5,2.3-1.7,3.3
		h-0.1H97c-0.1-0.1-0.3-0.2-0.5-0.4c-2.2-3.5-0.4-6.4,4.5-10.1c0.6-0.4,2.7-1.9,3.2-2.3c0.1,0,0.2-0.1,0.3-0.1
		c3,2.6,6.5,4.8,10.4,6.6c0,0.1,0.1,0.1,0.1,0.2C112.8,238.1,111,239.3,107.9,242L107.9,242z M201.6,235.9c1.7,2.9,1.7,5.2-0.5,6.9
		c-0.2-0.3-0.3-0.7-0.5-1.3c0-0.1,0-0.1-0.1-0.1c-0.8-2.1-1.3-3-2.2-4l-0.8,0.8c0.8,0.8,1.2,1.6,2,3.6c0,0.1,0,0.1,0.1,0.1
		c0.3,0.7,0.4,1.2,0.6,1.6c-1.5,1.2-2.7,1.5-4.1,0.8c-1.2-0.5-2.3-1.6-4.1-3.6c-0.1-0.1-0.2-0.3-0.3-0.4c-0.1-0.1-0.1-0.1-0.2-0.2
		c-0.1-0.1-0.1-0.1-0.2-0.2c-2.1-2.4-3.3-3.7-4.6-4.4c3.1-1.8,5.9-3.8,8.4-6.1C197.5,230.9,200.1,233.5,201.6,235.9L201.6,235.9z
		 M202.3,217.8c-4.8,9.6-13.3,16.5-24.7,20.6c-9.7,3.5-21.2,5-33.1,4.5c-20.5-0.7-38.2-7.9-46.5-21.4c-5.6-9-7.4-20.4-6.9-36.1
		c0.2-4.3,0.4-8.1,0.9-15.2c0.6-7.9,0.8-10.2,0.9-13.8c0.1-2.6,0.1-5.2,0.1-8c-0.1-4.9-0.4-8.8-1.1-17.6c-1-11.6-1.3-16.7-1.2-23
		c0.2-8.4,1.3-15.7,3.6-22.7c3.8-11.3,10.8-19,20.8-23.9c8.4-4.1,18.6-6.2,32.5-7.4c13,0,22.5,1.2,30.7,4.2
		c9.8,3.6,17.1,10,22.1,19.7c3.2,7.9,5.1,16.5,6.1,26.3c0.8,7.5,0.9,13.5,1,27.2v4.4c0.1,6.7,0.2,11.5,0.4,16.2
		c0.1,1.8,0.2,2.6,0.4,7c0.6,9.5,0.8,14.4,0.9,20.1C209.7,195,207.6,207.3,202.3,217.8L202.3,217.8z M219.4,156.8
		c-0.1,0-0.1-0.1-0.2-0.1c-1-0.3-1.3-0.6-1.7-0.9l-0.9,0.7c0.5,0.7,1,0.9,2.1,1.3c-0.2,2-1.2,2.7-2.8,2.6c-1.5-0.1-3.3-1-4.9-2.1
		c-0.4-0.3-0.9-0.6-1.3-0.8c-0.1,0-0.1-0.1-0.2-0.1c-0.2-3.1-0.2-3.8-0.3-5.5l-0.2-3c3.1,0.1,6.2,1,8.5,2.7c0.8,0.6,1.8,1.8,2.3,2.8
		C220.5,155.4,220.4,156.3,219.4,156.8L219.4,156.8z"/>
	<path class="st2" d="M156.2,111c0.1,2.8,0.6,6,0.1,9c-0.8,1.5-2.2,1.6-3.5,2.2c-1.8-0.3-3.3-1.5-4-3.1c-0.4-3.4,0.1-6.6,0.3-10
		c0-0.1,2.1,0.1,4,0.6C154.7,110.1,156.2,110.9,156.2,111L156.2,111z M140.4,111.2c-1.6,5.9,2.1,15.6,8,7.6
		c-0.4-3.3,0.1-6.6,0.2-9.9C148.7,108.7,140.5,110.8,140.4,111.2L140.4,111.2z"/>
	<path d="M156.9,113.6c-0.1-1.7-0.2-2.3-0.2-3.2V110l-0.4-0.1l-7-2.2v-0.4l-0.7,0.2h-0.1v0.1l-7.9,2l-0.3,0.1l-0.1,0.3
		c-1.2,3-0.9,7.4,0.6,10.2c1.8,3.1,4.7,3.2,7.6-0.4c0.8,1.6,2.4,2.7,4.2,3h0.2l0.2-0.1c0.2-0.1,0.4-0.2,0.8-0.3c0.1,0,0.1,0,0.1-0.1
		c1.6-0.6,2.3-1,2.8-2.1l0.1-0.1V120c0.2-1,0.2-2.1,0.2-3.2C157,115.9,157,115.2,156.9,113.6L156.9,113.6z M147.9,111.5
		c-0.1,1-0.1,1.4-0.2,2c-0.1,2.1-0.1,3.6,0.1,5.2c-2.6,3.3-4.7,3.3-6.1,0.8c-1.3-2.3-1.6-6.3-0.6-8.9l7-1.8
		C148.1,109.5,148.1,110.3,147.9,111.5z M155.7,119.8c-0.4,0.7-0.9,1-2.2,1.5c-0.1,0-0.1,0-0.1,0.1c-0.3,0.1-0.6,0.2-0.7,0.3
		c-1.5-0.3-2.8-1.3-3.4-2.7c-0.2-1.5-0.2-3.1-0.1-5.1c0.1-0.6,0.1-0.9,0.2-2c0.1-1.3,0.2-2.1,0.2-2.8l6.1,1.8c0,0.7,0.1,1.4,0.2,2.8
		c0.1,1.5,0.2,2.3,0.2,3.2C156,118,155.9,118.9,155.7,119.8z"/>
	<g transform="translate(48.476 21.976)">
		<path class="st2" d="M58.4,64.7c5.1,20,37.1,14.8,35.9-5.2C92.8,35.5,53.5,40.2,58.4,64.7"/>
		<path d="M94.8,59.5c-0.3-5.8-2.9-10.3-7.1-13.2c-3.8-2.6-8.8-3.6-13.8-3c-5,0.7-9.5,2.9-12.5,6.4c-3.3,3.9-4.6,9-3.5,14.9l0.5-0.1
			l-0.5,0.1C63.1,85.2,96,80.3,94.8,59.5z M58.9,64.6C57.7,59,59,54.2,62.1,50.5c2.8-3.3,7.1-5.5,11.9-6.1c4.7-0.6,9.5,0.3,13.1,2.8
			c4,2.7,6.4,6.9,6.7,12.4C94.9,79.1,63.8,83.8,58.9,64.6L58.9,64.6z"/>
		<ellipse cx="67.2" cy="61.4" rx="5.4" ry="5.9"/>
		<ellipse class="st2" cx="69.6" cy="62.8" rx="1.3" ry="1.5"/>
	</g>
	<g transform="translate(129.618 18.098)">
		<path class="st2" d="M22,64.8c4,22.9,41.4,16.8,36-6.2C53.2,37.9,20.7,43.6,22,64.8"/>
		<path d="M58.6,58.5c-5-21.4-38.4-15.5-37.1,6.4V65C23.3,75.8,33,81.3,43.6,79.5c4.9-0.8,9.2-3.2,12-6.6
			C58.8,69,59.9,64.1,58.6,58.5L58.6,58.5z M54.8,72.2c-2.7,3.2-6.7,5.5-11.4,6.2c-10.1,1.7-19.1-3.5-20.9-13.7
			c-1.2-20.6,30.3-26.2,35-6.1C58.8,64,57.8,68.6,54.8,72.2z"/>
		<ellipse cx="31.2" cy="63.8" rx="5.3" ry="5.9"/>
		<ellipse class="st2" cx="33.7" cy="65.2" rx="1.2" ry="1.5"/>
	</g>
	<g>
		<path class="st0" d="M141.6,99.2c-4.4,0.4-8,5.6-5.7,9.7c3,5.5,9.8-0.5,13.9,0.1c4.9,0.1,8.8,5.1,12.7,0.9
			c4.3-4.7-1.8-9.3-6.7-11.3L141.6,99.2L141.6,99.2z"/>
		<path class="st3" d="M163,102.9c-1.5-1.9-4.1-3.6-7-4.8L156,98h-0.1l-14.3,0.6c-5,0.4-8.5,6.2-6.1,10.5c0.9,1.7,2.2,2.5,4,2.6
			c1.3,0.1,2.6-0.2,4.7-0.9c0.2-0.1,0.4-0.1,0.7-0.2c2.8-0.9,3.9-1.2,5-1.1h0.1c1.3,0,2.5,0.4,4.6,1.2c2.3,0.9,3.1,1.2,4.2,1.3
			c1.6,0.1,3-0.4,4.3-1.8C165.1,107.9,165,105.3,163,102.9L163,102.9z M162.1,109.5c-1.1,1.2-2.1,1.6-3.4,1.5
			c-1-0.1-1.7-0.3-3.9-1.2c-2.2-0.9-3.5-1.3-4.9-1.3c-1.4-0.2-2.6,0.1-5.5,1.1c-0.3,0.1-0.5,0.2-0.7,0.2c-4.1,1.4-6,1.3-7.4-1.2
			c-2-3.6,1.1-8.5,5.2-8.9l14.1-0.6c2.7,1.1,5.1,2.7,6.5,4.5C163.8,105.6,163.9,107.6,162.1,109.5L162.1,109.5z"/>
		<path d="M156.9,96.8c-1.7-6.4-16.2-5.4-15.9,2.2C141.7,104.6,158.6,103.1,156.9,96.8z"/>
	</g>
</g>
</svg>
