<?xml version="1.0" encoding="utf-8"?>
<!-- Generator: Adobe Illustrator 22.0.1, SVG Export Plug-In . SVG Version: 6.00 Build 0)  -->
<svg version="1.1" id="Layer_1" xmlns="http://www.w3.org/2000/svg" xmlns:xlink="http://www.w3.org/1999/xlink" x="0px" y="0px"
	 viewBox="0 0 300 300" style="enable-background:new 0 0 300 300;" xml:space="preserve">
<style type="text/css">
	.st0{fill:#E44D26;}
	.st1{fill:#F16529;}
	.st2{fill:#EBEBEB;}
	.st3{fill:#FFFFFF;}
</style>
<g>
	<path class="st0" d="M227.7,83.5L213.5,242l-63.6,17.6L86.5,242L72.3,83.5H227.7L227.7,83.5z"/>
	<path class="st1" d="M150,246.1l51.4-14.2l12.1-135.5H150V246.1z"/>
	<path class="st2" d="M122.5,135.3H150v-19.4h-48.8l0.5,5.2l4.8,53.6H150v-19.4h-25.7L122.5,135.3z M126.9,184.4h-19.5l2.7,30.5
		l39.8,11.1l0.1,0v-20.2l-0.1,0l-21.7-5.8L126.9,184.4L126.9,184.4z"/>
	<path d="M86.8,40.4h9.9v9.8h9v-9.8h9.9v29.6h-9.9V60h-9v9.9h-9.9L86.8,40.4L86.8,40.4z M128.6,50.2h-8.7v-9.8h27.3v9.8h-8.7v19.8
		h-9.9L128.6,50.2L128.6,50.2L128.6,50.2z M151.5,40.4h10.3l6.3,10.4l6.3-10.4h10.3v29.6h-9.8V55.3l-6.8,10.5H168l-6.8-10.5v14.7
		h-9.7V40.4z M189.7,40.4h9.9v19.8h13.9v9.8h-23.8L189.7,40.4L189.7,40.4z"/>
	<path class="st3" d="M149.9,174.7h23.9l-2.3,25.2l-21.7,5.9V226l39.9-11l0.3-3.3l4.6-51.2l0.5-5.2h-45.2V174.7L149.9,174.7z
		 M149.9,135.3L149.9,135.3l47,0l0.4-4.4l0.9-9.9l0.5-5.2h-48.7V135.3L149.9,135.3z"/>
</g>
</svg>
