<?xml version="1.0" encoding="utf-8"?>
<!-- Generator: Adobe Illustrator 21.1.0, SVG Export Plug-In . SVG Version: 6.00 Build 0)  -->
<svg version="1.1" id="Layer_1" xmlns="http://www.w3.org/2000/svg" xmlns:xlink="http://www.w3.org/1999/xlink" x="0px" y="0px"
	 viewBox="0 0 300 300" style="enable-background:new 0 0 300 300;" xml:space="preserve">
<style type="text/css">
	.st0{fill:#FFFFFF;}
	.st1{fill:url(#SVGID_1_);}
	.st2{fill:url(#SVGID_2_);}
	.st3{fill:url(#SVGID_3_);}
</style>
<g>
	
		<image style="overflow:visible;" width="897" height="806" xlink:href="matlab.png"  transform="matrix(5.436644e-02 0 0 5.436644e-02 127.9572 129.5401)">
	</image>
	<g>
		<path class="st0" d="M154,216.2c-0.3-1.7,0.2-3.4-0.3-5c-0.4-1.4-1.5-1.5-2.1-2.7c-1.8-3-3.6-6.9-3.7-10.6
			c-0.2-3.3-1.4-6.3-1.5-9.5c-0.1-1.6,0.1-3.2,0-4.8c0-0.8-0.1-1.5-0.2-2.2c0-0.2-0.2-1-0.2-1.4l0.4-1c-0.2-0.4,3.5-0.2,4.6-0.2
			c1.9,0,3.6,0.1,5.5,0.2c3.8,0.2,7.3,0.1,11-0.4c8.2-1.3,12-4.6,14-6c7.6-5.5,11-14.4,11-14.4c1.2-2.8,1.2-7.8,3.9-10
			c3.2-2.6,8.4-2.4,12.1-4.1c2.1-0.9,3.6-1.5,5.8-1c1.6,0.3,4.5,2.2,5.2-0.4c-0.5-0.3-0.7-1-1-1.3c3-0.3,0.1-7.2-1.1-8.6
			c-1.8-2.1-4.9-3.1-8.1-4c-3.8-1-7.3-2.2-11-1.5c-6.3,1.2-5.8-2.4-9.6-2.4c-4.5,0-12.4,0.2-13.8,4.6c-0.6,2-1.3,2.1-2.4,3.7
			c-0.9,1.3,0.2,2.5-0.3,4c-0.5,1.6-1.2,7.1-2,9c-1.3,3.3-2.8,7.3-5.6,7.3c-3.9,0.5-7,0.6-10.2-0.5c-1.9-0.7-5.1-1.8-6.7-2.5
			c-7.3-3.1-8.5-6.5-8.5-6.5c-0.8-1.3-2.9-3.4-3.6-6.1c-0.9-3-2.3-5.5-2.9-7.1c-0.6-1.6-2-4.2-3.2-7.1c-1.5-3.6-3.5-6.3-5-7.6
			c-2.3-2-4.4-5.2-9-4.3c-0.8,0.2-3.8,0.3-6.2,2.2c-1.6,1.3-2.1,4-3.5,6.3c-0.8,1.3-2.3,5.1-3.7,8.3c-0.9,2.2-1.4,3.8-2.4,4.6
			c-0.8,0.6-1.8,1.4-3,1c-0.7-0.3-1.5-0.7-2.3-1.4c-1.1-0.8-3.5-5-5-8.1c-1.3-2.7-4.1-6.6-5.7-8.8c-2.3-3.1-3.7-3.9-7.1-3.9
			c-7.3,0-7.9,4.1-11.1,10.1c-1.4,2.6-1.9,6.8-4.8,10c-1.6,1.9-6.8,9.5-10.4,10.8v0l0,0v54.6l0,0.1v-0.3c0.2-0.7,0.5-1.4,0.8-2
			c1.4-3,4.6-5.7,6.4-8.8c1-1.7,2.1-3.3,2.7-5c0.6-1.5,0.8-3.7,1.6-5c1-1.6,2.5-2.1,4.1-2.4c2.5-0.4,4.6,3.6,7.8,5
			c1.4,0.6,7.6,2.8,9.4,3.3c3.1,0.7,6.5,1.3,9.6,2c1.7,0.3,3.3,0.5,5,0.7c1.5,0.2,7.3,0.3,7.7,0.8c-2.9,1.5-4.7,5.7-5.8,8.7
			c-1.2,3.1-2,6.6-3.3,9.6c-1.5,3.4-4.8,4.8-4.4,8.7c0.1,1.6,0.4,3.2,0.2,4.9c-0.3,1.8-1,3.2-1.5,5c-0.7,2.3-1.5,9.8-2.5,12l6.4-0.8
			l0,0c0.7-1.7,1.4-8.7,1.6-9.4c1.2-3.5,2.8-6.5,5.3-9.2c2.4-2.7,2.3-6.1,3.7-9.2c1.5-3.4,3.6-6.1,5.5-9.3c3.5-5.7,5.8-13,13.2-14.5
			c0.8-0.2,5.3,3.1,7.3,5c2.3,2.2,4.8,4.8,6.3,7.8c2.9,5.9,5.4,14.5,6.3,19.2c0.5,2.7,1,2.9,2.8,5c0.8,1,2.5,4.1,3.1,5.2
			c0.6,1.3,1.5,4.1,2.2,5.6c0.4,0.9,1.5,3.5,2.3,5.9l6-0.2c0,0,0.1,0,0.2,0c0,0,0,0,0,0c0,0,0-0.1-0.1-0.1
			C156.9,229.8,155,222.8,154,216.2L154,216.2z"/>
		
			<linearGradient id="SVGID_1_" gradientUnits="userSpaceOnUse" x1="-347.7298" y1="251.5711" x2="-347.7298" y2="251.3176" gradientTransform="matrix(234.5202 0 0 -215.5465 81673.7344 54407.6445)">
			<stop  offset="0" style="stop-color:#F29100"/>
			<stop  offset="1" style="stop-color:#EC670F"/>
		</linearGradient>
		<path class="st1" d="M151.5,230.2c-0.7-1.5-1.6-4.3-2.2-5.6c-0.6-1.2-2.2-4.3-3.1-5.2c-1.8-2.1-2.3-2.3-2.8-5
			c-0.9-4.7-3.4-13.3-6.3-19.2c-1.5-3-4-5.6-6.3-7.8c-2-1.9-6.5-5.2-7.3-5c-7.4,1.5-9.7,8.7-13.2,14.5c-1.9,3.2-4,5.9-5.5,9.3
			c-1.4,3.1-1.3,6.5-3.7,9.2c-2.5,2.7-4.1,5.6-5.3,9.2c-0.2,0.7-0.9,7.7-1.6,9.4l0,0l11-0.8c10.2,0.7,7.3,4.6,23.2,3.8l25.2-0.8
			C153,233.8,151.9,231.1,151.5,230.2L151.5,230.2z"/>
		
			<linearGradient id="SVGID_2_" gradientUnits="userSpaceOnUse" x1="-348.3677" y1="249.9811" x2="-348.3677" y2="249.7276" gradientTransform="matrix(787.7503 0 0 -686.4052 274576.75 171651.2969)">
			<stop  offset="0" style="stop-color:#F29100"/>
			<stop  offset="1" style="stop-color:#EC670F"/>
		</linearGradient>
		<path class="st2" d="M224.7,63H75.3c-13.9,0-25.2,11.3-25.2,25.2V143c3.6-1.3,8.8-9,10.4-10.8c2.8-3.3,3.4-7.4,4.8-10
			c3.2-6,3.8-10.1,11.1-10.1c3.4,0,4.8,0.8,7.1,3.9c1.6,2.2,4.4,6.1,5.7,8.8c1.5,3.1,3.9,7.2,5,8.1c0.8,0.6,1.6,1.1,2.3,1.4
			c1.2,0.4,2.2-0.4,3-1c1-0.8,1.4-2.5,2.4-4.6c1.4-3.2,2.8-7,3.7-8.3c1.5-2.3,1.9-5,3.5-6.3c2.3-1.9,5.3-2.1,6.2-2.2
			c4.6-0.9,6.8,2.2,9,4.3c1.5,1.3,3.5,4,5,7.6c1.1,2.8,2.6,5.4,3.2,7.1c0.6,1.6,2,4.1,2.9,7.1c0.8,2.7,2.9,4.8,3.6,6.1
			c0,0,1.2,3.4,8.5,6.5c1.6,0.7,4.8,1.8,6.7,2.5c3.2,1.2,6.3,1,10.2,0.5c2.8,0,4.3-4.1,5.6-7.3c0.8-1.9,1.5-7.4,2-9
			c0.5-1.5-0.6-2.7,0.3-4c1.1-1.6,1.8-1.6,2.4-3.7c1.4-4.3,9.3-4.6,13.8-4.6c3.7,0,3.3,3.6,9.6,2.4c3.6-0.7,7.1,0.5,11,1.5
			c3.2,0.9,6.3,1.8,8.1,4c1.2,1.4,4.1,8.3,1.1,8.6c0.3,0.3,0.5,1,1,1.3c-0.7,2.6-3.6,0.8-5.2,0.4c-2.2-0.4-3.7,0.1-5.8,1
			c-3.6,1.6-8.9,1.4-12.1,4.1c-2.7,2.2-2.7,7.2-3.9,10c0,0-3.5,8.9-11,14.4c-1.9,1.4-5.7,4.8-14,6c-3.7,0.6-7.2,0.6-11,0.4
			c-1.9-0.1-3.6-0.2-5.5-0.2c-1.1,0-4.8-0.1-4.6,0.2l-0.4,1c0.1,0.3,0.2,1.2,0.2,1.4c0.2,0.8,0.2,1.5,0.2,2.2c0.1,1.6-0.1,3.2,0,4.8
			c0.2,3.3,1.4,6.2,1.5,9.5c0.2,3.7,2,7.6,3.7,10.6c0.7,1.1,1.7,1.3,2.1,2.7c0.5,1.6,0,3.3,0.3,5c1,6.7,2.9,13.6,5.9,19.6
			c0,0.1,0,0.1,0.1,0.2c3.7-0.6,7.4-2,12.2-2.7c8.8-1.3,21.1-0.6,29-1.4c19.9-1.9,30.8,8.2,48.7,4.1V88.2
			C249.8,74.3,238.6,63,224.7,63L224.7,63z M150.2,181.1C150.1,180.8,150.2,180.8,150.2,181.1L150.2,181.1z"/>
		
			<linearGradient id="SVGID_3_" gradientUnits="userSpaceOnUse" x1="-347.043" y1="251.2914" x2="-347.043" y2="251.038" gradientTransform="matrix(217.6032 0 0 -243.3295 75595.4141 61320.7031)">
			<stop  offset="0" style="stop-color:#F29100"/>
			<stop  offset="1" style="stop-color:#EC670F"/>
		</linearGradient>
		<path class="st3" d="M96.2,204.2c1.4-3,2.2-6.5,3.3-9.6c1.1-3,2.8-7.2,5.8-8.7c-0.4-0.4-6.1-0.6-7.7-0.8c-1.7-0.2-3.3-0.4-5-0.7
			c-3.1-0.6-6.5-1.2-9.6-2c-1.9-0.5-8.1-2.7-9.4-3.3c-3.2-1.5-5.3-5.4-7.8-5c-1.6,0.3-3.1,0.8-4.1,2.4c-0.8,1.3-1.1,3.5-1.6,5
			c-0.6,1.7-1.8,3.4-2.7,5c-1.8,3-5,5.8-6.4,8.8c-0.3,0.7-0.5,1.3-0.8,2v33.9c1.6,0.3,3.3,0.6,5.2,1.1c14,3.7,17.4,4.1,31.2,2.5
			l1.3-0.2v0c1.1-2.2,1.9-9.7,2.5-12c0.5-1.8,1.3-3.2,1.5-5c0.3-1.7,0-3.4-0.2-4.9C91.4,208.9,94.7,207.5,96.2,204.2L96.2,204.2z"/>
	</g>
</g>
</svg>
