<?xml version="1.0" encoding="utf-8"?>
<!-- Generator: Adobe Illustrator 21.1.0, SVG Export Plug-In . SVG Version: 6.00 Build 0)  -->
<svg version="1.1" id="Layer_1" xmlns="http://www.w3.org/2000/svg" xmlns:xlink="http://www.w3.org/1999/xlink" x="0px" y="0px"
	 viewBox="0 0 300 300" style="enable-background:new 0 0 300 300;" xml:space="preserve">
<style type="text/css">
	.st0{fill:#61DAFB;}
</style>
<g>
	<path class="st0" d="M243,150c0-12.3-15.4-24-39.1-31.2c5.5-24.1,3-43.3-7.7-49.4c-2.5-1.4-5.3-2.1-8.5-2.1v8.5
		c1.7,0,3.1,0.3,4.3,1c5.2,3,7.4,14.2,5.6,28.7c-0.4,3.6-1.1,7.3-1.9,11.1c-7.4-1.8-15.5-3.2-24.1-4.1c-5.1-7-10.4-13.4-15.8-19
		c12.4-11.5,24-17.8,31.8-17.8v-8.5c-10.4,0-24.1,7.4-37.9,20.3c-13.8-12.8-27.4-20.2-37.9-20.2v8.5c7.8,0,19.5,6.3,31.8,17.7
		c-5.3,5.6-10.6,11.9-15.7,18.9c-8.6,0.9-16.7,2.3-24.1,4.2c-0.9-3.8-1.5-7.5-2-11c-1.8-14.5,0.4-25.7,5.5-28.7c1.1-0.7,2.6-1,4.4-1
		v-8.5c-3.2,0-6.1,0.7-8.6,2.1c-10.7,6.1-13,25.3-7.5,49.3C72.4,126.1,57,137.7,57,150c0,12.3,15.4,24,39.1,31.2
		c-5.5,24.1-3,43.3,7.7,49.4c2.5,1.4,5.3,2.1,8.5,2.1c10.4,0,24.1-7.4,37.9-20.3c13.8,12.8,27.4,20.2,37.9,20.2
		c3.2,0,6.1-0.7,8.6-2.1c10.7-6.1,13-25.3,7.5-49.3C227.6,174,243,162.3,243,150L243,150z M193.6,124.7c-1.4,4.9-3.1,9.9-5.1,15
		c-1.6-3-3.2-6.1-5-9.1c-1.7-3-3.6-6-5.5-8.9C183.5,122.5,188.7,123.5,193.6,124.7L193.6,124.7z M176.3,165.1c-3,5.1-6,10-9.1,14.5
		c-5.6,0.5-11.4,0.8-17.1,0.8c-5.7,0-11.4-0.3-17.1-0.7c-3.1-4.5-6.2-9.3-9.2-14.4c-2.9-5-5.5-10-7.9-15.1c2.4-5.1,5-10.2,7.8-15.1
		c3-5.1,6-10,9.1-14.5c5.6-0.5,11.4-0.8,17.1-0.8c5.7,0,11.4,0.3,17.1,0.7c3.1,4.5,6.2,9.3,9.2,14.4c2.9,5,5.5,10,7.9,15.1
		C181.7,155.1,179.1,160.1,176.3,165.1L176.3,165.1z M188.5,160.2c2,5.1,3.8,10.2,5.2,15.1c-5,1.2-10.2,2.2-15.6,3
		c1.9-2.9,3.7-5.9,5.5-9C185.3,166.3,187,163.2,188.5,160.2L188.5,160.2z M150.1,200.6c-3.5-3.6-7.1-7.7-10.5-12.1
		c3.4,0.2,6.9,0.3,10.4,0.3c3.6,0,7.1-0.1,10.5-0.3C157.1,192.9,153.6,197,150.1,200.6z M121.9,178.3c-5.4-0.8-10.6-1.8-15.5-3
		c1.4-4.9,3.1-9.9,5.1-15c1.6,3,3.2,6.1,5,9.1C118.2,172.5,120,175.4,121.9,178.3z M149.9,99.4c3.5,3.6,7.1,7.7,10.5,12.1
		c-3.4-0.2-6.9-0.3-10.4-0.3c-3.6,0-7.1,0.1-10.5,0.3C142.9,107.1,146.4,103,149.9,99.4z M121.8,121.7c-1.9,2.9-3.7,5.9-5.5,9
		c-1.7,3-3.4,6.1-4.9,9.1c-2-5.1-3.8-10.2-5.2-15.1C111.2,123.6,116.4,122.5,121.8,121.7L121.8,121.7z M87.5,169.2
		C74.1,163.5,65.4,156,65.4,150s8.7-13.5,22.1-19.2c3.3-1.4,6.8-2.7,10.5-3.8c2.2,7.4,5,15.2,8.5,23.1c-3.5,7.9-6.3,15.6-8.4,23
		C94.4,171.9,90.8,170.6,87.5,169.2L87.5,169.2z M107.9,223.4c-5.2-3-7.4-14.2-5.6-28.7c0.4-3.6,1.1-7.3,1.9-11.1
		c7.4,1.8,15.5,3.2,24.1,4.1c5.1,7,10.4,13.4,15.8,19c-12.4,11.5-24,17.8-31.8,17.8C110.5,224.4,109.1,224,107.9,223.4L107.9,223.4z
		 M197.8,194.5c1.8,14.5-0.4,25.7-5.5,28.7c-1.1,0.7-2.6,1-4.4,1c-7.8,0-19.5-6.3-31.8-17.7c5.3-5.6,10.6-11.9,15.7-18.9
		c8.6-0.9,16.7-2.3,24.1-4.2C196.7,187.3,197.4,191,197.8,194.5z M212.4,169.2c-3.3,1.4-6.8,2.7-10.5,3.8c-2.2-7.4-5-15.2-8.5-23.1
		c3.5-7.9,6.3-15.6,8.4-23c3.8,1.2,7.3,2.5,10.7,3.9c13.4,5.7,22.1,13.2,22.1,19.2C234.5,156,225.9,163.5,212.4,169.2L212.4,169.2z"
		/>
	<circle class="st0" cx="150" cy="150" r="17.3"/>
	<path class="st0" d="M187.7,67.2"/>
</g>
</svg>
