<?xml version="1.0" encoding="utf-8"?>
<!-- Generator: Adobe Illustrator 21.1.0, SVG Export Plug-In . SVG Version: 6.00 Build 0)  -->
<svg version="1.1" id="Layer_1" xmlns="http://www.w3.org/2000/svg" xmlns:xlink="http://www.w3.org/1999/xlink" x="0px" y="0px"
	 viewBox="0 0 300 300" style="enable-background:new 0 0 300 300;" xml:space="preserve">
<style type="text/css">
	.st0{fill:url(#SVGID_1_);}
	.st1{fill:url(#SVGID_2_);}
	.st2{fill:url(#SVGID_3_);}
	.st3{fill:url(#SVGID_4_);}
	.st4{fill:url(#SVGID_5_);}
</style>
<g>
	
		<linearGradient id="SVGID_1_" gradientUnits="userSpaceOnUse" x1="-348.7155" y1="246.8933" x2="-348.6356" y2="246.8933" gradientTransform="matrix(1538 0 0 576.75 536413 -142215)">
		<stop  offset="0" style="stop-color:#4F4F4F"/>
		<stop  offset="1" style="stop-color:#000000"/>
	</linearGradient>
	<path class="st0" d="M88.6,173v15.4c0,2.6,55.8,6.9,92.2,15.3c17.6-4.1,30.6-9.1,30.6-15.3V173c0-6.2-13-11.3-30.6-15.3
		C144.4,166.1,88.6,170.4,88.6,173"/>
	
		<linearGradient id="SVGID_2_" gradientUnits="userSpaceOnUse" x1="-348.7155" y1="248.1202" x2="-348.6356" y2="248.1202" gradientTransform="matrix(1538 0 0 576.75 536413 -142984)">
		<stop  offset="0" style="stop-color:#4F4F4F"/>
		<stop  offset="1" style="stop-color:#000000"/>
	</linearGradient>
	<path class="st1" d="M88.6,111.6V127c0,2.6,55.8,6.9,92.2,15.3c17.6-4.1,30.6-9.1,30.6-15.3v-15.3c0-6.2-13-11.3-30.6-15.3
		C144.4,104.7,88.6,109,88.6,111.6"/>
	
		<linearGradient id="SVGID_3_" gradientUnits="userSpaceOnUse" x1="-348.7155" y1="248.304" x2="-348.6356" y2="248.304" gradientTransform="matrix(1538 0 0 961.25 536413 -238532.25)">
		<stop  offset="0" style="stop-color:#C40000"/>
		<stop  offset="1" style="stop-color:#FF0000"/>
	</linearGradient>
	<path class="st2" d="M88.6,142.3v46.1c0-3.8,122.8-11.5,122.8-30.7v-46.1C211.4,130.8,88.6,138.5,88.6,142.3"/>
	
		<linearGradient id="SVGID_4_" gradientUnits="userSpaceOnUse" x1="-348.7155" y1="249.0402" x2="-348.6356" y2="249.0402" gradientTransform="matrix(1538 0 0 961.25 536413 -239301.25)">
		<stop  offset="0" style="stop-color:#C40000"/>
		<stop  offset="1" style="stop-color:#FF0000"/>
	</linearGradient>
	<path class="st3" d="M88.6,80.9v46c0-3.8,122.8-11.5,122.8-30.7v-46C211.4,69.4,88.6,77.1,88.6,80.9"/>
	
		<linearGradient id="SVGID_5_" gradientUnits="userSpaceOnUse" x1="-348.7155" y1="247.5679" x2="-348.6356" y2="247.5679" gradientTransform="matrix(1538 0 0 961.25 536413 -237763.25)">
		<stop  offset="0" style="stop-color:#C40000"/>
		<stop  offset="1" style="stop-color:#FF0000"/>
	</linearGradient>
	<path class="st4" d="M88.6,203.7v46.1c0-3.8,122.8-11.5,122.8-30.7V173C211.4,192.2,88.6,199.9,88.6,203.7"/>
</g>
</svg>
