<?xml version="1.0" encoding="utf-8"?>
<!-- Generator: Adobe Illustrator 22.0.1, SVG Export Plug-In . SVG Version: 6.00 Build 0)  -->
<svg version="1.1" id="Layer_1" xmlns="http://www.w3.org/2000/svg" xmlns:xlink="http://www.w3.org/1999/xlink" x="0px" y="0px"
	 viewBox="0 0 300 300" style="enable-background:new 0 0 300 300;" xml:space="preserve">
<style type="text/css">
	.st0{fill:#A9B9CB;}
	.st1{fill:#7F8B99;}
	.st2{fill:#FFFFFF;}
	.st3{fill:#5C8DBC;}
	.st4{fill:#1A4674;}
	.st5{fill:#1B598E;}
</style>
<g>
	<path class="st0" d="M247.6,104.8c0-3.7-0.8-7-2.4-9.8c-1.6-2.8-3.9-5.1-7.1-6.9c-26-15-52-29.9-78-45c-7-4-13.8-3.9-20.7,0.2
		c-10.3,6.1-62.1,35.8-77.5,44.7c-6.4,3.7-9.4,9.3-9.4,16.6c0,30.2,0,60.3,0,90.5c0,3.6,0.8,6.8,2.3,9.6c1.6,2.8,3.9,5.2,7.2,7.1
		c15.4,8.9,67.2,38.6,77.5,44.7c7,4.1,13.7,4.3,20.7,0.2c26-15,52-30,78-45c3.2-1.9,5.6-4.2,7.2-7.1c1.5-2.8,2.3-6,2.3-9.6
		C247.6,195.2,247.6,134.9,247.6,104.8"/>
	<path class="st1" d="M160,43.4c-7-4-13.8-3.9-20.7,0.2c-10.3,6.1-62,35.7-77.4,44.6c-6.3,3.7-9.4,9.3-9.4,16.6
		c0,30.1,0,60.2,0,90.2c0,3.6,0.8,6.8,2.3,9.5c1.6,2.8,3.9,5.2,7.2,7.1c5.1,3,10.2,5.9,15.4,8.9L219.8,77.9
		C199.9,66.4,179.9,54.9,160,43.4"/>
	<path class="st2" d="M170.2,136.3l30.4,0.2c0-12.7-12.8-43.6-49.5-43.6c-23.4,0-54.8,14.9-54.8,57.6c0,42.8,30.8,56.7,54.8,56.7
		c38.9,0,48.2-26.9,48.2-42.1l-29-1.7c0,0,0.8,17.6-19.4,17.6c-18.6,0-21.7-22.8-21.7-30.5c0-11.8,4.2-30.7,21.7-30.7
		C168.4,119.8,170.2,136.3,170.2,136.3"/>
</g>
<g>
	<path class="st3" d="M247.6,104.8c0-3.7-0.8-6.9-2.4-9.7c-1.6-2.8-3.9-5.1-7.1-6.9c-26-15-52-29.9-78-44.9c-7-4-13.8-3.9-20.7,0.2
		c-10.3,6.1-62.1,35.8-77.5,44.7c-6.4,3.7-9.4,9.3-9.4,16.6c0,30.1,0,60.2,0,90.4c0,3.6,0.8,6.8,2.3,9.6c1.6,2.8,3.9,5.2,7.2,7.1
		c15.4,8.9,67.2,38.6,77.5,44.7c7,4.1,13.7,4.2,20.7,0.2c26-15,52-29.9,78-44.9c3.2-1.9,5.6-4.2,7.2-7.1c1.5-2.8,2.3-6,2.3-9.6
		C247.6,195.2,247.6,134.9,247.6,104.8"/>
	<path class="st4" d="M150.3,149.7l-95.6,55c1.6,2.8,3.9,5.2,7.2,7.1c15.4,8.9,67.2,38.6,77.5,44.7c7,4.1,13.7,4.2,20.7,0.2
		c26-15,52-29.9,78-44.9c3.2-1.9,5.6-4.2,7.2-7.1L150.3,149.7"/>
	<path class="st4" d="M122,166c5.6,9.7,16,16.3,28,16.3c12.1,0,22.6-6.6,28.1-16.4l-27.8-16.1L122,166"/>
	<path class="st5" d="M247.6,104.8c0-3.7-0.8-6.9-2.4-9.7l-94.9,54.6l95,55c1.5-2.8,2.3-6,2.3-9.6
		C247.6,195.2,247.6,134.9,247.6,104.8"/>
	<path class="st2" d="M242.3,153.6h-7.4v7.4h-7.4v-7.4h-7.4v-7.4h7.4v-7.4h7.4v7.4h7.4V153.6 M215.3,153.6h-7.4v7.4h-7.4v-7.4H193
		v-7.4h7.4v-7.4h7.4v7.4h7.4V153.6"/>
	<path class="st2" d="M178.1,165.8c-5.5,9.8-16.1,16.4-28.1,16.4c-12,0-22.5-6.5-28-16.3c-2.8-4.9-4.3-10.4-4.3-16
		c0-17.8,14.4-32.3,32.3-32.3c11.9,0,22.3,6.5,27.9,16.1l28.2-16.2C194.9,98.2,174,85.2,150,85.2c-35.8,0-64.8,29-64.8,64.8
		c0,11.7,3.1,22.8,8.6,32.3c11.2,19.5,32.2,32.6,56.2,32.6c24.1,0,45.1-13.2,56.3-32.7L178.1,165.8"/>
</g>
</svg>
