<?xml version="1.0" encoding="utf-8"?>
<!-- Generator: Adobe Illustrator 22.0.1, SVG Export Plug-In . SVG Version: 6.00 Build 0)  -->
<svg version="1.1" id="Layer_1" xmlns="http://www.w3.org/2000/svg" xmlns:xlink="http://www.w3.org/1999/xlink" x="0px" y="0px"
	 viewBox="0 0 300 300" style="enable-background:new 0 0 300 300;" xml:space="preserve">
<style type="text/css">
	.st0{fill:#8CC84B;}
</style>
<g>
	<path class="st0" d="M142.2,56.3c4.7-2.7,10.9-2.7,15.6,0c23.8,13.4,47.6,26.9,71.4,40.3c4.5,2.5,7.5,7.5,7.4,12.7v80.9
		c0,5.4-3.3,10.5-8,12.9c-23.7,13.4-47.4,26.8-71.1,40.1c-4.8,2.8-11.1,2.5-15.8-0.4c-7.1-4.1-14.2-8.2-21.3-12.3
		c-1.5-0.9-3.1-1.6-4.1-3c0.9-1.2,2.5-1.4,3.8-1.9c3-0.9,5.7-2.5,8.4-3.9c0.7-0.5,1.5-0.3,2.2,0.1c6.1,3.5,12.1,7.1,18.2,10.5
		c1.3,0.8,2.6-0.2,3.7-0.9c23.3-13.2,46.6-26.3,69.8-39.4c0.9-0.4,1.3-1.3,1.3-2.3c0-26.7,0-53.4,0-80c0.1-1.1-0.5-2.1-1.5-2.5
		c-23.6-13.3-47.2-26.6-70.9-39.9c-0.8-0.6-1.9-0.6-2.8,0c-23.6,13.3-47.2,26.7-70.9,40c-1,0.4-1.6,1.4-1.5,2.5c0,26.7,0,53.4,0,80
		c-0.1,0.9,0.4,1.8,1.3,2.2c6.3,3.6,12.6,7.1,18.9,10.7c3.6,1.9,7.9,3,11.8,1.6c3.5-1.2,5.9-4.8,5.8-8.4c0-26.5,0-53,0-79.6
		c-0.1-1.2,1-2.2,2.2-2c3,0,6.1,0,9.1,0c1.3,0,2.1,1.2,2,2.4c0,26.7,0,53.4,0,80.1c0,7.1-2.9,14.9-9.5,18.3
		c-8.1,4.2-18.1,3.3-26.1-0.7c-6.9-3.5-13.5-7.5-20.4-11.3c-4.7-2.4-8-7.6-8-12.9v-80.9c0-5.3,3.1-10.3,7.7-12.8
		C94.8,83.1,118.5,69.7,142.2,56.3z"/>
	<path class="st0" d="M162.9,112.3c10.3-0.7,21.4-0.4,30.7,4.7c7.2,3.9,11.2,12.1,11.3,20.1c-0.2,1.1-1.3,1.7-2.4,1.6c-3,0-6,0-9,0
		c-1.3,0-2-1.1-2.2-2.2c-0.9-3.8-3-7.6-6.6-9.5c-5.5-2.8-11.9-2.6-18-2.6c-4.4,0.2-9.1,0.6-12.9,3.2c-2.9,2-3.7,5.9-2.7,9.1
		c1,2.3,3.6,3,5.8,3.7c12.5,3.3,25.7,2.9,37.9,7.2c5.1,1.7,10,5.1,11.7,10.4c2.3,7.1,1.3,15.6-3.8,21.3c-4.1,4.7-10.1,7.2-16,8.6
		c-7.9,1.8-16.1,1.8-24.2,1c-7.6-0.9-15.4-2.8-21.3-8c-5-4.3-7.4-11.1-7.2-17.6c0.1-1.1,1.2-1.9,2.2-1.8c3,0,6,0,9.1,0
		c1.2-0.1,2.1,1,2.2,2.1c0.6,3.6,1.9,7.5,5.1,9.6c6.1,4,13.8,3.7,20.9,3.8c5.8-0.3,12.4-0.3,17.1-4.2c2.5-2.2,3.3-5.9,2.6-9
		c-0.7-2.7-3.5-3.9-5.9-4.7c-12.3-3.9-25.7-2.5-37.8-6.9c-4.9-1.7-9.7-5.1-11.6-10.1c-2.7-7.2-1.4-16.1,4.1-21.6
		C147.5,115.2,155.4,113.1,162.9,112.3L162.9,112.3z"/>
</g>
</svg>
